Regular.sfdir
StartChar: exclam
Encoding: 33 33 16
Width: 260
VWidth: 0
Flags: MW
HStem: -9 104<82.6465 167.354> 640 20G<127.5 152.5>
VStem: 85 90<544.1 654>
LayerCount: 2
Fore
SplineSet
85 654 m 0
 85 654 115 660 140 660 c 27
 165 660 175 632 175 607 c 27
 175 444 157 352 146 189 c 17
 129 184 139 177 126 177 c 27
 121 177 118 179 115 183 c 1
 85 654 l 0
EndSplineSet
Refer: 4 46 N 1 0 0 1 5 0 2
EndChar
StartChar: numbersign
Encoding: 35 35 84
Width: 530
VWidth: 0
Flags: W
HStem: -5 21G<124.715 127 274.603 282> 118 59<50 149 200 299> 293 59<94.4448 191 240 339> 465 20G<264 265.455 409 410.938>
DStem2: 120 -5 160 0 0.230716 0.973021<7.06177 126.372 196.52 306.341 376.027 504.482> 270 -5 315 0 0.221187 0.975232<13.6894 129.294 200.506 308.807 379.355 422.841 447.538 504.086>
LayerCount: 2
Fore
SplineSet
160 0 m 1
 149 -6 134 -4 120 -5 c 1
 149 118 l 1
 30 115 l 1
 36 137 39 153 50 175 c 1
 162 177 l 1
 191 293 l 5
 75 290 l 1
 81 312 83 330 95 350 c 1
 205 352 l 1
 235 480 l 1
 245 484 258 484 270 485 c 1
 240 353 l 1
 352 356 l 1
 380 480 l 1
 390 486 403 484 415 485 c 1
 389 357 l 1
 500 360 l 1
 497 338 496 317 490 300 c 1
 377 297 l 5
 352 182 l 1
 475 185 l 1
 471 163 476 147 465 125 c 1
 340 122 l 1
 315 0 l 1
 301 -2 294 -3 270 -5 c 1
 299 121 l 1
 187 118 l 1
 160 0 l 1
339 296 m 5
 227 293 l 5
 200 178 l 1
 311 181 l 1
 339 296 l 5
EndSplineSet
EndChar
StartChar: dollar
Encoding: 36 36 96
Width: 516
VWidth: 0
Flags: MW
HStem: -10 37<277 334> 623 36<209.123 261>
VStem: 78 83<438.526 566.938> 246 43<81.7637 276 381 570.459> 388 83<78.1182 214.944>
DStem2: 225 -70 270 -65 0.0758677 0.997118<5.94905 61.1404 100.666 309.26>
LayerCount: 2
Fore
SplineSet
270 -65 m 1
 255 -67 240 -68 225 -70 c 1
 227 -49 228 -29 229 -8 c 1
 136 2 87 41 70 49 c 1
 50 196 l 1
 60 198 78 199 83 199 c 1
 98 148 159 50 232 30 c 5
 237 113 242 207 246 291 c 1
 202 306 78 356 78 471 c 3
 78 559 122 649 263 659 c 1
 264 676 264 693 265 710 c 1
 281 711 297 712 310 715 c 1
 309 696 308 678 307 659 c 1
 361 655 407 635 437 619 c 1
 457 472 l 1
 446 469 429 469 424 469 c 1
 409 521 394 608 305 622 c 1
 301 539 298 447 294 364 c 1
 330 353 471 322 471 184 c 3
 471 85 434 -10 274 -10 c 1
 273 -28 271 -47 270 -65 c 1
250 381 m 1
 253 459 257 545 261 623 c 1
 169 616 161 539 161 506 c 3
 161 441 209 401 250 381 c 1
289 276 m 1
 285 196 282 107 277 27 c 5
 371 34 388 113 388 149 c 3
 388 219 330 259 289 276 c 1
EndSplineSet
EndChar
StartChar: percent
Encoding: 37 37 93
Width: 665
VWidth: 0
Flags: W
HStem: -10 34<457.146 543.983> 241 34<455.569 542.818> 325 34<127.146 213.983> 576 34<125.569 213.039>
VStem: 30 67<385.751 537.771> 238 67<382.546 548.99> 360 67<50.7515 202.771> 568 67<47.5465 213.99>
LayerCount: 2
Fore
SplineSet
498 241 m 7
 441 241 427 181 427 133 c 7
 427 93 440 24 497 24 c 7
 561 24 568 78 568 133 c 7
 568 176 565 241 498 241 c 7
360 127 m 7
 360 206 426 275 500 275 c 7
 588 275 635 204 635 139 c 7
 635 39 582 -10 494 -10 c 7
 386 -10 360 80 360 127 c 7
168 576 m 3
 111 576 97 516 97 468 c 3
 97 428 110 359 167 359 c 3
 231 359 238 413 238 468 c 3
 238 511 236 576 168 576 c 3
30 462 m 3
 30 541 96 610 170 610 c 3
 258 610 305 539 305 474 c 3
 305 374 252 325 164 325 c 3
 56 325 30 415 30 462 c 3
155 0 m 1
 136 -2 125 -4 100 -5 c 1
 243 210 369 380 500 600 c 1
 523 601 534 603 555 605 c 1
 413 376 289 204 155 0 c 1
EndSplineSet
EndChar
StartChar: ampersand
Encoding: 38 38 168
Width: 720
VWidth: 0
Flags: MW
HStem: -10 59<185.377 339.042> 397 23<539.323 578.099> 635 25<240.936 309.767>
VStem: 25 87<124.216 266.799> 145 70<483.256 605.008> 350 55<488.311 606.297>
DStem2: 290 415 225 380 0.595706 -0.803203<0 296.214>
LayerCount: 2
Fore
SplineSet
621 371 m 2
 621 371 538 200 491 145 c 9
 491 145 586 34 638 34 c 7
 666 34 700 65 700 65 c 25
 700 38 l 25
 700 38 651 0 611 0 c 3
 531 0 491 45 449 90 c 1
 391 24 320 -10 215 -10 c 3
 103 -10 25 64 25 180 c 3
 25 317 168 387 204 405 c 9
 204 405 145 483 145 540 c 3
 145 607 208 660 275 660 c 3
 373 660 405 603 405 550 c 3
 405 477 318 427 290 415 c 1
 358 324 439 214 465 176 c 1
 504 217 591 371 591 371 c 3
 591 390 548 392 543 397 c 1
 540 400 539 394 539 420 c 1
 690 420 l 1
 690 407 688 407 684 403 c 1
 671 390 630 392 621 371 c 2
225 380 m 1
 197 365 112 317 112 210 c 3
 112 101 195 49 255 49 c 3
 316 49 377 75 424 125 c 1
 387 174 312 278 225 380 c 1
215 550 m 3
 215 514 243 464 270 440 c 1
 310 462 350 491 350 550 c 3
 350 592 313 635 275 635 c 3
 223 635 215 579 215 550 c 3
EndSplineSet
EndChar
StartChar: quotesingle
Encoding: 39 39 53
Width: 225
VWidth: 0
Flags: MW
HStem: 399 240
VStem: 60 85<487.035 620.654>
LayerCount: 2
Fore
SplineSet
60 606 m 3
 60 614 119 639 132 639 c 3
 143.044921875 639 145 635.083007812 145 629 c 3
 145 607.622070312 121 458 107 413 c 9
 61 399 l 17
 61.9375 412.22265625 65 515 65 528 c 3
 65 562 60 597 60 606 c 3
EndSplineSet
Validated: 1
EndChar
StartChar: parenleft
Encoding: 40 40 79
Width: 315
VWidth: 0
Flags: W
VStem: 40 79<165.742 431.6>
LayerCount: 2
Fore
SplineSet
285 730 m 9
 305 696 l 17
 202 613 119 471 119 307 c 3
 119 146 192 -10 305 -106 c 9
 275 -140 l 17
 206 -95 40 88.9130859375 40 297 c 3
 40 492.576495702 156 627 285 730 c 9
EndSplineSet
Validated: 1
EndChar
StartChar: parenright
Encoding: 41 41 80
Width: 305
VWidth: 0
Flags: W
VStem: 196 74<165.76 439.988>
LayerCount: 2
Fore
SplineSet
30 730 m 17
 159 627 270 493 270 297 c 3
 270 89 109 -95 40 -140 c 9
 10 -106 l 17
 123 -10 196 146 196 307 c 3
 196 471 113 613 10 696 c 9
 30 730 l 17
EndSplineSet
EndChar
StartChar: asterisk
Encoding: 42 42 92
Width: 365
VWidth: 0
Flags: W
HStem: 532 47<273.003 290.519>
VStem: 154 59<539.773 638>
LayerCount: 2
Fore
SplineSet
116 402 m 1
 116 402 111 401 108 401 c 0
 91 401 80 434 80 434 c 1
 101.591796875 458.212890625 121.76171875 483.236328125 146 502 c 1
 116.591796875 511.051757812 87.76171875 520.61328125 61 532 c 1
 61 532 60 539 60 543 c 0
 60 561 79 582 79 582 c 1
 107.182617188 562.454101562 129.245117188 553 160 538 c 1
 160 576 154.2734375 602.666992188 154 640 c 1
 154 640 161 647 166 647 c 0
 184 647 213 638 213 638 c 1
 207.0859375 601.333007812 201.484375 571.666992188 198 535 c 1
 230.333007812 550.469726562 240.666992188 558.25 273 577 c 1
 273 577 277 579 281 579 c 0
 296 579 305 532 305 532 c 1
 271.666992188 518.666992188 238.333007812 508 205 500 c 1
 225.333007812 476 244.333007812 451.333007812 266 430 c 1
 266 430 268 424 268 419 c 0
 268 402 230 394 230 394 c 1
 204.98046875 421.666992188 195.430664062 449.333007812 176 477 c 1
 148.728515625 453.499023438 138.063476562 428.158203125 116 402 c 1
EndSplineSet
EndChar
StartChar: plus
Encoding: 43 43 72
Width: 410
VWidth: 0
Flags: W
HStem: 208 45<69.7244 191 232 345.287>
VStem: 192 40<80 208 253 375.449>
LayerCount: 2
Fore
SplineSet
231 208 m 1
 230 166 230 125 230 80 c 1
 215 80 210 80 190 75 c 1
 190 122 190 165 191 208 c 1
 149 207 106 206 60 205 c 1
 66 221 67 232 70 250 c 1
 112 252 152 252 192 253 c 1
 193 292 194 332 195 375 c 1
 216 380 218 378 235 380 c 1
 234 336 233 294 232 253 c 1
 272 253 313 254 355 255 c 1
 353 237 348 228 345 210 c 1
 306 209 268 208 231 208 c 1
EndSplineSet
EndChar
StartChar: comma
Encoding: 44 44 63
Width: 260
VWidth: 0
Flags: W
HStem: -131 212
VStem: 121 69<-34.0268 55.9277>
LayerCount: 2
Fore
SplineSet
100 36 m 3
 100 64 144 81 157 81 c 3
 168 81 190 62 190 29 c 3
 190 -29 115 -103 87 -127 c 9
 60 -131 l 17
 61 -118 121 -25 121 -12 c 3
 121 8 100 20 100 36 c 3
EndSplineSet
EndChar
StartChar: hyphen
Encoding: 45 45 70
AltUni2: 002212.ffffffff.0
Width: 380
VWidth: 0
Flags: W
HStem: 210 45<79.73 300.619>
VStem: 70 240
LayerCount: 2
Fore
SplineSet
300 215 m 5
 216.666015625 214.657226562 153.333007812 215.103515625 70 210 c 5
 76.197265625 226.234375 77.0574088073 236.380202101 80 255 c 1
 161.339304218 258.700576364 226.188476562 258.8203125 310 260 c 1
 306.775390625 241.26953125 304.504882812 229.0390625 300 215 c 5
EndSplineSet
EndChar
StartChar: period
Encoding: 46 46 4
Width: 260
VWidth: 0
Flags: W
HStem: -13 112<81.538 168.462>
VStem: 70 110<-1.89597 87.896>
LayerCount: 2
Fore
SplineSet
125 99 m 27
 156 99 180 74 180 43 c 27
 180 12 156 -13 125 -13 c 27
 94 -13 70 12 70 43 c 27
 70 74 94 99 125 99 c 27
EndSplineSet
Validated: 1
EndChar
StartChar: slash
Encoding: 47 47 81
Width: 315
VWidth: 0
Flags: W
HStem: 680 20G<202.5 238>
VStem: 30 255
LayerCount: 2
Fore
SplineSet
85 -68 m 1
 62 -63 48 -61 30 -50 c 1
 102 198 175 446 230 700 c 1
 246 692 258 687 285 682 c 1
 224 435 155 184 85 -68 c 1
EndSplineSet
EndChar
StartChar: zero
Encoding: 48 48 59
Width: 484
VWidth: 0
Flags: W
HStem: -10 39<191.941 305.067> 451 39<183.326 299.704>
VStem: 40 89<116.37 350.424> 355 89<104.54 356.492>
LayerCount: 2
Fore
SplineSet
245 451 m 3
 143.7578125 451 129 348.017578125 129 235 c 3
 129 151.849609375 151.865234375 29 245 29 c 3
 346.004882812 29 355 140.995117188 355 235 c 3
 355 326.022460938 346.004882812 451 245 451 c 3
40 235 m 3
 40 342.004882812 97.986328125 490 245 490 c 3
 398.012695312 490 444 340 444 235 c 3
 444 114.99609375 404.314453125 -10 245 -10 c 3
 95.9462890625 -10 40 117.931640625 40 235 c 3
EndSplineSet
Validated: 1
EndChar
StartChar: one
Encoding: 49 49 60
Width: 346
VWidth: 0
Flags: W
HStem: -4 22<56.0991 104.051 273.078 305.182> 396 30<40 120.422>
VStem: 146 77<33.8841 385.954>
LayerCount: 2
Fore
SplineSet
40 396 m 5
 40 426 l 5
 93 426 193 459 229 500 c 1
 226 483 223 450 223 411 c 6
 223 47 l 18
 223 29 297 29 302 24 c 0
 305 21 306 19 306 -4 c 1
 284 -1 218 0 181 0 c 3
 144 0 78 -1 51 -4 c 1
 51 8 53 14 57 18 c 0
 69 30 146 26 146 47 c 10
 146 348 l 22
 146 374 129 390 100 393 c 14
 40 396 l 5
EndSplineSet
Validated: 1
EndChar
StartChar: two
Encoding: 50 50 61
Width: 426
VWidth: 0
Flags: W
HStem: 0 52<114 338.886> 448 42<134.519 241.77>
VStem: 41 24<310.688 337.152> 272 89<294.176 418.412> 372 24<101.816 128.517>
LayerCount: 2
Fore
SplineSet
361 365 m 3
 361 271 213 131 114 52 c 9
 264 52 l 2
 298 52 350 53 372 130 c 1
 377 130 390 129 396 127 c 1
 380 12 l 1
 361 3 304 0 252 0 c 2
 25 0 l 17
 25 44 272 219 272 366 c 3
 272 400 242 448 187 448 c 3
 147 448 101 416 65 309 c 1
 60 309 50 310 41 312 c 1
 57 437 l 1
 76 453 139 490 207 490 c 3
 268 490 361 465 361 365 c 3
EndSplineSet
EndChar
StartChar: three
Encoding: 51 51 75
Width: 431
VWidth: 0
Flags: MW
HStem: -170 36<59 167.486> 443 47<128.976 246.94>
VStem: 301 90<-16.34 114.744>
LayerCount: 2
Fore
SplineSet
391 74 m 0
 391 -64 258 -170 51 -170 c 0
 59 -134 l 3
 236 -134 301 -27 301 39 c 3
 301 86 277 172 162 172 c 3
 148 172 127 168 127 168 c 1
 127 198 l 1
 155 213 l 2
 252 265 272 322 272 361 c 3
 272 407 245 443 186 443 c 3
 141 443 84 396 67 339 c 1
 62 339 49 340 40 342 c 1
 66 437 l 1
 82 451 152 490 206 490 c 3
 306 490 361 443 361 370 c 3
 361 306 303 229 235 209 c 1
 338 209 391 126 391 74 c 0
EndSplineSet
Validated: 1
EndChar
StartChar: four
Encoding: 52 52 74
Width: 469
VWidth: 0
Flags: W
HStem: 30 54<87 267 334 430.224>
VStem: 267 67<-159 30 84 368>
LayerCount: 2
Fore
SplineSet
267 368 m 5
 196 281 146 170 87 84 c 1
 267 84 l 1
 267 368 l 5
439 89 m 1
 431 37 l 1
 415 31 363 30 329 30 c 1
 329 -34 334 -140 339 -160 c 1
 262 -160 l 1
 266 -144 272 -20 272 30 c 1
 10 30 l 1
 116 195 162 305 278 460 c 1
 340 500 l 1
 338 477 335 466 335 431 c 2
 334 84 l 1
 381 84 426 85 439 89 c 1
EndSplineSet
EndChar
StartChar: five
Encoding: 53 53 76
Width: 422
VWidth: 0
Flags: W
HStem: -168 31<18 124.601> 413 67<147.06 364> 470 20G<375.75 377.325>
VStem: 260 79<-26.7162 98.8952>
DStem2: 40 192 105 257 0.255154 0.9669<78.8544 246.296>
LayerCount: 2
Fore
SplineSet
18 -137 m 7xd0
 195 -137 260 -37.0078125 260 29 c 3
 260 144.017578125 133 162.356445312 40 192 c 9
 116 480 l 17
 314 480 l 2xd0
 367.5 480 369.5 483 382 490 c 9xb0
 364 413 l 25
 169 413 l 18
 147 413 132.001953125 352.955078125 121.267578125 314.809570312 c 2
 105 257 l 1
 178 234.893554688 339 197.014648438 339 64 c 3
 339 -74.0322265625 217 -168 10 -168 c 0
 18 -137 l 7xd0
EndSplineSet
EndChar
StartChar: six
Encoding: 54 54 77
Width: 466
VWidth: 0
Flags: W
HStem: -10 39<183.668 303.609> 331 39<202.075 306.055>
VStem: 30 94<103.848 335.46> 352 94<88.7176 280.679>
LayerCount: 2
Fore
SplineSet
166 306 m 1
 170 327 l 1
 178 333 217 370 261 370 c 3
 360 370 446 311 446 188 c 3
 446 49 353 -10 224 -10 c 3
 143 -10 30 47 30 216 c 3
 30 442 228 561 330 620 c 9
 368 610 l 17
 246 527 124 452 124 211 c 3
 124 106 169 29 237 29 c 3
 281 29 352 43 352 172 c 3
 352 271 320 331 247 331 c 3
 209 331 178 313 166 306 c 1
EndSplineSet
Validated: 1
EndChar
StartChar: seven
Encoding: 55 55 62
Width: 423
VWidth: 0
Flags: W
HStem: 417 63<96.1465 314>
VStem: 25 25<319.934 349.21> 122 88<-160 -125.111>
LayerCount: 2
Fore
SplineSet
122 -160 m 17
 211 -10 233 205 314 417 c 1
 150 417 l 2
 104 417 67 376 50 319 c 1
 45 319 34 318 25 322 c 1
 51 462 l 1
 70 471 94 480 138 480 c 2
 408 480 l 1
 279 205 230 -49 210 -160 c 9
 122 -160 l 17
EndSplineSet
EndChar
StartChar: eight
Encoding: 56 56 91
Width: 421
VWidth: 0
Flags: MW
HStem: -10 34<157.609 267.51> 576 34<161.948 254.699>
VStem: 30 74<75.5565 238.224> 312 79<74.2552 211.723>
LayerCount: 2
Fore
SplineSet
182 308 m 1
 137 274 104 227 104 162 c 3
 104 97 139 24 204 24 c 3
 272 24 312 63 312 141 c 3
 312 218 247 265 182 308 c 1
144 334 m 1
 98 369 65 405 65 469 c 3
 65 554 116 610 225 610 c 3
 322 610 356 546 356 487 c 3
 356 435 318 371 256 332 c 5
 324 281 391 228 391 156 c 3
 391 50 298 -10 217 -10 c 3
 94 -10 30 58 30 148 c 3
 30 231 78 294 144 334 c 1
226 355 m 1
 277 388 292 439 292 478 c 3
 292 534 254 576 208 576 c 3
 157 576 134 534 134 484 c 3
 134 439 173 395 226 355 c 1
EndSplineSet
EndChar
StartChar: nine
Encoding: 57 57 78
Width: 471
VWidth: 0
Flags: W
HStem: 130 39<164.399 274.164> 451 39<162.518 283.721>
VStem: 20 94<224.001 388.549> 352 94<163.285 371.669>
LayerCount: 2
Fore
SplineSet
300 184 m 1
 296 163 l 1
 288 157 249 130 205 130 c 3
 106 130 20 208 20 292 c 3
 20 448 149 490 242 490 c 3
 323 490 446 433 446 264 c 3
 446 90 244 -92 156 -160 c 9
 98 -170 l 17
 199 -72 352 85 352 269 c 3
 352 374 297 451 229 451 c 3
 185 451 114 437 114 308 c 3
 114 248 146 169 219 169 c 3
 257 169 288 177 300 184 c 1
EndSplineSet
Validated: 1
EndChar
StartChar: less
Encoding: 60 60 88
Width: 378
VWidth: 0
Flags: W
VStem: 50 100.11<184.073 238.922>
LayerCount: 2
Fore
SplineSet
318 51 m 5
 300 20 l 1
 300 20 50 181 50 210 c 3
 50 244.131835938 290 410 290 410 c 1
 308 379 l 1
 308 379 150.110351562 241 150.110351562 210 c 3
 150.110351562 185 318 51 318 51 c 5
EndSplineSet
EndChar
StartChar: equal
Encoding: 61 61 73
Width: 440
VWidth: 0
Flags: W
HStem: 141 55<74.6913 355.211> 264 55<84.8139 365.491>
VStem: 65 310
LayerCount: 2
Fore
SplineSet
355 146 m 1
 258.349609375 144.307617188 159.369140625 146.311523438 65 141 c 1
 71.2939453125 159.333007812 71.6142578125 177.666992188 75 196 c 1
 169.284179688 199.391601562 268.413085938 199.275390625 365 201 c 1
 360.872070312 182.666992188 357.202148438 164.333007812 355 146 c 1
365 269 m 1
 268.331054688 267.334960938 169.387695312 266.923828125 75 264 c 1
 80.787109375 280.647460938 83.0244140625 299.733398438 85 319 c 1
 181.666992188 323.385742188 278.333007812 322.143554688 375 324 c 1
 371.721679688 305.666992188 370.362304688 287.333007812 365 269 c 1
EndSplineSet
Validated: 1
EndChar
StartChar: greater
Encoding: 62 62 87
Width: 383
VWidth: 0
Flags: W
VStem: 233 100<184.073 238.899>
LayerCount: 2
Fore
SplineSet
65 51 m 5
 65 51 233 185 233 210 c 3
 233 241 75 379 75 379 c 1
 93 410 l 1
 93 410 333 244 333 210 c 3
 333 181 83 20 83 20 c 1
 65 51 l 5
EndSplineSet
EndChar
StartChar: question
Encoding: 63 63 67
Width: 436
VWidth: 0
Flags: MW
HStem: -9 104<149.646 234.354> 618 42<133.297 268.032>
VStem: 55 24<513.688 542.948> 142 100<-1.37407 87.3741> 293 93<484.231 595.129>
LayerCount: 2
Fore
SplineSet
176 280 m 3
 176 261 202 217 222 217 c 9
 173 159 l 17
 165 186 127 231 127 256 c 3
 127 273 293 453 293 530 c 3
 293 569 281 618 203 618 c 3
 128 618 96 569 79 512 c 1
 74 512 64 512 55 516 c 1
 81 631 l 1
 100 640 130 660 227 660 c 3
 305 660 386 625 386 542 c 3
 386 452 176 298 176 280 c 3
EndSplineSet
Refer: 4 46 N 1 0 0 1 72 0 2
EndChar
StartChar: at
Encoding: 64 64 95
Width: 617
VWidth: 0
Flags: W
HStem: -60 34<234.538 407.16> 80 51<267.334 340.382 392.489 494.622> 306 41<291.744 354> 446 34<249.876 416.377>
VStem: 40 66<100.375 310.751> 184 74<137.461 274.827> 354 66<142.024 306> 521 56<157.513 333.372>
LayerCount: 2
Fore
SplineSet
258 200 m 3
 258 153 273.26171875 131 304 131 c 31
 328.4921875 131 343 149 354 174 c 9
 354 306 l 17
 299 306 258 277 258 200 c 3
407 80 m 3
 377.978515625 80 361 97 361 129 c 1
 342 95 316 80 290 80 c 3
 250.987304688 80 184 114 184 188 c 3
 184 293 231 346 419 347 c 9
 420 194 l 18
 420.091796875 180 423 130 442 130 c 7
 467.318359375 130 521 151 521 219 c 3
 521 303 490.030273438 446 340 446 c 3
 206.99609375 446 106 353.029296875 106 202 c 3
 106 65.8681640625 205.98046875 -26 309 -26 c 7
 391.719726562 -26 431.251953125 -1.4580078125 479 36 c 9
 503 6 l 17
 452.153320312 -43.107421875 388.7578125 -60 306 -60 c 3
 164.967773438 -60 40 41 40 195 c 3
 40 367 150.956054688 480 332 480 c 3
 465.034179688 480 577 388.044921875 577 212 c 3
 577 123.994140625 493.092773438 80 407 80 c 3
EndSplineSet
EndChar
StartChar: A
Encoding: 65 65 42
Width: 668
VWidth: 0
Flags: W
HStem: -4 22<10.0991 27.9704 188.234 205.384> 236 48<204 401> 640 20G<332 349>
DStem2: 64 57 187 236 0.359732 0.933056<13.8044 20.8645 20.9243 211.264 262.166 538.148> 363 650 302 542 0.362977 -0.931798<78.4926 354.831 406.091 598.592 598.654 612.912>
LayerCount: 2
Fore
SplineSet
204 284 m 1
 401 284 l 1
 366 375 327 474 302 542 c 1
 271 463 235 369 204 284 c 1
64 57 m 2
 288 638 l 1
 292 647 319 660 345 660 c 3
 353 660 360 657 363 650 c 0
 363 650 594 57 594 57 c 2
 601 40 654 29 659 24 c 0
 661 22 663 20 663 -4 c 1
 642 0 574 0 537 0 c 3
 500 0 458 0 431 -4 c 1
 431 8 433 14 437 18 c 0
 449 30 490 31 490 57 c 3
 490 57 458 136 419 236 c 1
 187 236 l 1
 150 134 122 57 122 57 c 3
 122 39 198 29 203 24 c 0
 205 22 206 20 206 -4 c 1
 185 0 140 0 103 0 c 3
 66 0 32 0 5 -4 c 1
 5 8 7 14 11 18 c 0
 23 30 56 37 64 57 c 2
EndSplineSet
Validated: 1
EndChar
StartChar: B
Encoding: 66 66 36
Width: 575
VWidth: 0
Flags: MW
HStem: 0 42<188.282 388.92> 322 35<188 339.691> 608 42<188.42 345.51>
VStem: 105 83<44.3946 322 357 606.369> 452 88<98.7798 244.301>
LayerCount: 2
Fore
SplineSet
287 42 m 2
 439 42 452 133 452 170 c 3
 452 239.180664062 398 322 280 322 c 2
 188 322 l 1
 188 66 l 2
 188 48 213 42 220 42 c 2
 287 42 l 2
307 0 m 2
 152 0 l 2
 114 0 72 0 45 -4 c 1
 45 8 47 11 51 15 c 4
 63 27 105 33 105 54 c 6
 105 596 l 2
 105 617 63 623 51 635 c 0
 47 639 45 642 45 654 c 1
 72 650 115 650 152 650 c 2
 288 650 l 2
 436 650 500 565 500 502 c 3
 500 409 437 352 369 344 c 1
 468 337 540 278 540 182 c 3
 540 84 471 0 307 0 c 2
271 608 m 2
 219 608 l 2
 212 608 188 602 188 583 c 2
 188 357 l 1
 256 357 l 2
 356 357 414 416 414 479 c 3
 414 543 353 608 271 608 c 2
EndSplineSet
EndChar
StartChar: C
Encoding: 67 67 33
Width: 638
VWidth: 0
Flags: W
HStem: -10 37<288.849 507.791> 624 36<268.636 454.915>
VStem: 40 106<187.887 449.417> 546 13<471 498.125>
LayerCount: 2
Fore
SplineSet
522 564 m 1
 468 615 403 624 340 624 c 3
 215 624 146 501 146 337 c 3
 146 176 209 27 376 27 c 3
 462 27 532 45 586 82 c 9
 598 49 l 17
 536 2 455 -10 364 -10 c 3
 158 -10 40 120 40 313 c 3
 40 523 171 660 352 660 c 3
 452 660 517 638 584 613 c 5
 559 465 l 5
 546 471 l 1
 522 564 l 1
EndSplineSet
EndChar
StartChar: D
Encoding: 68 68 35
Width: 662
VWidth: 0
Flags: W
HStem: 0 42<188.282 423.767> 608 42<188.42 399.421>
VStem: 105 83<44.3946 606.369> 537 90<187.439 449.13>
LayerCount: 2
Fore
SplineSet
333 42 m 6
 451 42 537 124 537 301 c 3
 537 436 494 608 298 608 c 2
 219 608 l 2
 212 608 188 602 188 583 c 2
 188 66 l 6
 188 48 213 42 220 42 c 6
 333 42 l 6
152 0 m 2
 114 0 72 0 45 -4 c 1
 45 8 47 11 51 15 c 4
 63 27 105 33 105 54 c 6
 105 596 l 2
 105 617 63 623 51 635 c 0
 47 639 45 642 45 654 c 1
 72 650 115 650 152 650 c 2
 310 650 l 2
 546 650 627 494 627 325 c 3
 627 85 483 0 322 0 c 2
 152 0 l 2
EndSplineSet
EndChar
StartChar: E
Encoding: 69 69 32
Width: 588
VWidth: 0
Flags: MW
HStem: 0 42<188.282 482.654> 318 43<188 389.718> 608 42<188.42 466.463>
VStem: 105 83<44.3946 318 361 606.369> 402 16<244 276.421>
LayerCount: 2
Fore
SplineSet
152 0 m 2
 114 0 72 0 45 -4 c 1
 45 8 47 11 51 15 c 0
 63 27 105 33 105 54 c 2
 105 596 l 2
 105 617 63 623 51 635 c 0
 47 639 45 642 45 654 c 1
 72 650 115 650 152 650 c 2
 535 650 l 1
 510 517 l 1
 495 523 l 1
 495 523 490 608 414 608 c 2
 219 608 l 2
 212 608 188 602 188 583 c 2
 188 361 l 1
 368 361 l 2
 412 361 399 391 427 422 c 1
 443 428 l 1
 418 238 l 1
 402 244 l 1
 389 268 400 318 366 318 c 2
 188 318 l 1
 188 66 l 2
 188 48 213 42 220 42 c 2
 426 42 l 2
 510 42 544 161 544 161 c 1
 558 155 l 1
 536 0 l 1
 152 0 l 2
EndSplineSet
EndChar
StartChar: F
Encoding: 70 70 37
Width: 587
VWidth: 0
Flags: W
HStem: -4 25<201.158 271.438> 312 43<188 395.718> 402 20G<433 446.368> 608 42<188.42 478.463>
VStem: 105 83<31.6965 312 355 606.369> 408 16<238 270.421> 433 16<405.902 416>
LayerCount: 2
Fore
SplineSet
219 608 m 2
 212 608 188 602 188 583 c 2
 188 355 l 1
 374 355 l 2
 418 355 405 385 433 416 c 1
 449 422 l 1
 424 232 l 1
 408 238 l 1
 395 262 406 312 372 312 c 2
 188 312 l 1
 188 44 l 2
 188 26 263 26 268 21 c 0
 271 18 272 19 272 -4 c 1
 250 -1 178 0 141 0 c 3
 104 0 72 -1 45 -4 c 1
 45 8 47 11 51 15 c 0
 63 27 105 33 105 54 c 2
 105 596 l 2
 105 617 63 623 51 635 c 0
 47 639 45 642 45 654 c 1
 72 650 115 650 152 650 c 2
 547 650 l 1
 522 517 l 1
 507 523 l 1
 507 523 502 608 426 608 c 2
 219 608 l 2
EndSplineSet
EndChar
StartChar: G
Encoding: 71 71 34
Width: 675
VWidth: 0
Flags: W
HStem: -10 37<318.421 491.249> 281 28<389 466.179 597.64 642> 485 21G<556 572.906> 624 36<274.216 464.915>
VStem: 50 96<187.887 449.417> 498 83<32.3227 260.295>
LayerCount: 2
Fore
SplineSet
645 309 m 25
 642 281 l 21
 599 281 582 271 581 188 c 14
 581 26 l 17
 533 2 495 -10 374 -10 c 3
 168 -10 50 120 50 313 c 3
 50 523 181 660 362 660 c 3
 462 660 527 638 594 613 c 1
 569 485 l 1
 556 491 l 1
 532 564 l 1
 478 615 413 624 350 624 c 3
 225 624 146 501 146 337 c 3
 146 176 198 27 447 27 c 3
 470 27 498 35 498 65 c 2
 498 188 l 6
 498 271 459 281 389 281 c 13
 387 309 l 17
 645 309 l 25
EndSplineSet
EndChar
StartChar: H
Encoding: 72 72 40
Width: 737
VWidth: 0
Flags: W
HStem: -4 21G<35 48.5 250.5 261 476 489.5 691.5 702> 312 43<189 547> 630 20G<35 261 476 702>
VStem: 106 83<36.8081 312 355 613.175> 547 83<36.8081 312 355 613.192>
LayerCount: 2
Fore
SplineSet
702 650 m 1
 702 626 701 631 699 629 c 0
 694 624 630 614 630 596 c 2
 630 54 l 6
 630 36 694 26 699 21 c 4
 701 19 702 20 702 -4 c 1
 681 0 626 0 589 0 c 3
 552 0 503 0 476 -4 c 1
 476 8 478 11 482 15 c 4
 494 27 547 33 547 54 c 6
 547 312 l 1
 189 312 l 1
 189 54 l 6
 189 36 252 26 257 21 c 4
 259 19 261 20 261 -4 c 1
 240 0 179 0 142 0 c 3
 105 0 62 0 35 -4 c 1
 35 8 37 11 41 15 c 4
 53 27 106 33 106 54 c 6
 106 596 l 2
 106 617 53 623 41 635 c 0
 37 639 35 638 35 650 c 1
 261 650 l 1
 261 626 259 631 257 629 c 0
 252 624 189 613 189 596 c 2
 189 355 l 1
 547 355 l 1
 547 596 l 2
 547 617 494 623 482 635 c 0
 478 639 476 638 476 650 c 1
 702 650 l 1
EndSplineSet
EndChar
StartChar: I
Encoding: 73 73 39
Width: 315
VWidth: 0
Flags: W
HStem: -4 21G<40 53.5 264.5 275> 630 20G<40 275>
VStem: 111 92<39.8081 610.192>
LayerCount: 2
Fore
SplineSet
275 650 m 1
 275 626 273 628 271 626 c 0
 266 621 203 611 203 593 c 2
 203 57 l 2
 203 39 266 29 271 24 c 0
 273 22 275 20 275 -4 c 1
 254 0 195 0 158 0 c 3
 121 0 67 0 40 -4 c 1
 40 8 42 14 46 18 c 0
 58 30 111 36 111 57 c 2
 111 593 l 2
 111 614 58 620 46 632 c 0
 42 636 40 638 40 650 c 1
 275 650 l 1
EndSplineSet
Validated: 1
EndChar
StartChar: J
Encoding: 74 74 47
Width: 316
VWidth: 0
Flags: W
HStem: -270 66<-25 84.6715> 630 20G<66 291>
VStem: 137 82<-74.7328 613.192>
LayerCount: 2
Fore
SplineSet
291 650 m 1
 291 626 289 631 287 629 c 0
 282 624 219 614 219 596 c 10
 219 97 l 18
 219 -155 125 -270 -5 -270 c 3
 -45 -270 -90 -242 -90 -222 c 3
 -90 -172 -34 -162 -17 -162 c 5
 -17 -174 35 -204 66 -204 c 7
 128 -204 137 -167 137 168 c 10
 137 596 l 18
 137 617 84 623 72 635 c 0
 68 639 66 638 66 650 c 1
 291 650 l 1
EndSplineSet
EndChar
StartChar: K
Encoding: 75 75 57
Width: 652
VWidth: 0
Flags: W
HStem: -3 18<618.504 635.852> 630 20G<45 270 364 575>
VStem: 116 82<36.8081 247 336 613.192>
DStem2: 198 336 260 316 0.659267 0.751909<0 25.8364 104.574 346.928> 311 376 260 316 0.619009 -0.785384<15.5535 353.532>
LayerCount: 2
Fore
SplineSet
575 650 m 1
 575 638 573 639 569 635 c 0
 557 623 518 612 504 596 c 2
 311 376 l 1
 564 55 l 6
 578 39 619 27 631 15 c 4
 635 11 637 9 637 -3 c 1
 613 0 579 0 523 0 c 3
 481 0 429 0 415 -3 c 1
 415 21 417 19 419 21 c 4
 424 26 463 33 463 55 c 4
 260 316 l 1
 198 247 l 1
 198 54 l 6
 198 36 261 26 266 21 c 4
 268 19 270 20 270 -4 c 1
 249 0 195 0 158 0 c 3
 121 0 72 0 45 -4 c 1
 45 8 47 11 51 15 c 4
 63 27 116 33 116 54 c 6
 116 596 l 2
 116 617 63 623 51 635 c 0
 47 639 45 638 45 650 c 1
 270 650 l 1
 270 626 268 631 266 629 c 0
 261 624 198 614 198 596 c 2
 198 336 l 1
 423 596 l 3
 423 614 372 624 367 629 c 0
 365 631 364 626 364 650 c 1
 575 650 l 1
EndSplineSet
EndChar
StartChar: L
Encoding: 76 76 38
Width: 542
VWidth: 0
Flags: W
HStem: 0 42<196.214 447.875> 630 20G<45 248>
VStem: 105 83<50.2332 614.995>
LayerCount: 2
Fore
SplineSet
248 650 m 1
 248 626 247 631 245 629 c 0
 240 624 188 614 188 596 c 2
 188 127 l 2
 188 46 198 42 279 42 c 2
 394 42 l 2
 478 42 512 171 512 171 c 1
 527 165 l 1
 504 0 l 1
 152 0 l 2
 114 0 72 0 45 -4 c 1
 45 8 47 11 51 15 c 0
 63 27 105 33 105 54 c 2
 105 596 l 2
 105 617 63 623 51 635 c 0
 47 639 45 638 45 650 c 1
 248 650 l 1
EndSplineSet
EndChar
StartChar: M
Encoding: 77 77 56
Width: 827
VWidth: 0
Flags: W
HStem: -4 21G<25 38.5 205.5 216 567 580.5 791.5 802> 630 20G<25 195 636.5 801>
VStem: 95 49<36.8081 483> 638 91<36.9868 495>
DStem2: 150 650 144 483 0.523667 -0.851923<139.129 522.004>
LayerCount: 2
Fore
SplineSet
683 650 m 1
 801 650 l 1
 801 626 799 631 797 629 c 0
 792 624 729 613 729 596 c 2
 729 54 l 2
 729 36 793 26 798 21 c 0
 800 19 802 20 802 -4 c 1
 781 0 745 0 708 0 c 3
 671 0 594 0 567 -4 c 1
 567 8 569 11 573 15 c 0
 585 27 638 32 638 54 c 2
 638 495 l 1
 567 354 470 212 388 68 c 5
 349 148 228 351 144 483 c 1
 144 54 l 2
 144 36 208 26 213 21 c 0
 215 19 216 20 216 -4 c 1
 195 0 144 0 107 0 c 3
 70 0 52 0 25 -4 c 1
 25 8 26 11 30 15 c 0
 42 27 95 33 95 54 c 2
 95 590 l 2
 95 615 43 620 31 632 c 0
 27 636 25 638 25 650 c 1
 150 650 l 1
 240 497 372 289 418 202 c 1
 507 360 590 491 683 650 c 1
EndSplineSet
EndChar
StartChar: N
Encoding: 78 78 43
Width: 732
VWidth: 0
Flags: W
HStem: -4 21G<29 42.5 220.5 231> 630 20G<20 165 532 712>
VStem: 100 59<36.8081 508> 602 59<138 615.723>
LayerCount: 2
Fore
SplineSet
602 0 m 1
 461 191 306.448242188 338.38671875 159 508 c 1
 159 54 l 6
 159 36 222 26 227 21 c 4
 229 19 231 20 231 -4 c 1
 210 0 149 0 112 0 c 3
 75 0 56 0 29 -4 c 1
 29 8 31 11 35 15 c 4
 47 27 100 33 100 54 c 6
 100 590 l 2
 100 615 38 620 26 632 c 0
 22 636 20 638 20 650 c 1
 165 650 l 1
 165 617 475 310 602 138 c 1
 602 596 l 2
 602 616 550 623 538 635 c 0
 534 639 532 638 532 650 c 1
 712 650 l 1
 712 626 710 631 708 629 c 0
 703 624 661 613 661 596 c 2
 661 -12 l 1
 635 -12 623 -12 602 0 c 1
EndSplineSet
EndChar
StartChar: O
Encoding: 79 79 31
Width: 699
VWidth: 0
Flags: W
HStem: -10 37<278.439 449.06> 624 36<253.635 417.526>
VStem: 35 93<198.228 449.417> 571 93<185.654 448.929>
LayerCount: 2
Fore
SplineSet
329 624 m 3
 204 624 128 501 128 337 c 3
 128 176 203 27 370 27 c 7
 488 27 571 124 571 301 c 3
 571 436 525 624 329 624 c 3
35 313 m 3
 35 523 160 660 341 660 c 3
 560 660 664 494 664 325 c 3
 664 85 520 -10 359 -10 c 3
 153 -10 35 120 35 313 c 3
EndSplineSet
EndChar
StartChar: P
Encoding: 80 80 46
Width: 547
VWidth: 0
Flags: W
HStem: -4 25<224.311 271.438> 273 43<188 349.811> 608 42<188.42 350.574>
VStem: 105 83<38.1516 273 316 606.369> 432 85<384.244 531.916>
LayerCount: 2
Fore
SplineSet
267 273 m 2
 188 273 l 1
 188 54 l 2
 188 36 263 26 268 21 c 0
 271 18 272 19 272 -4 c 1
 250 -1 181 0 144 0 c 7
 107 0 72 -1 45 -4 c 1
 45 8 47 11 51 15 c 0
 63 27 105 33 105 54 c 2
 105 596 l 2
 105 617 63 623 51 635 c 0
 47 639 45 642 45 654 c 1
 72 650 115 650 152 650 c 2
 305 650 l 2
 453 650 517 542 517 479 c 3
 517 354 466 273 267 273 c 2
258 608 m 2
 219 608 l 2
 212 608 188 602 188 583 c 2
 188 316 l 1
 244 316 l 2
 344 316 432 360 432 455 c 3
 432 519 386 608 258 608 c 2
EndSplineSet
EndChar
StartChar: Q
Encoding: 81 81 50
Width: 719
VWidth: 0
Flags: W
HStem: -269 19<653.689 702> 619 41<260.866 435.626>
VStem: 35 103<201.038 449.026> 581 103<187.153 448.246>
LayerCount: 2
Fore
SplineSet
702 -269 m 1
 674 -269 l 2
 452 -269 403 -58 342 -9 c 1
 152 2 35 128 35 313 c 3
 35 523 170 660 351 660 c 3
 570 660 684 494 684 325 c 3
 684 131 583 32 460 1 c 1
 536 -191 622 -250 707 -250 c 1
 702 -269 l 1
339 619 m 3
 214 619 138 501 138 337 c 3
 138 176 213 32 380 32 c 3
 498 32 581 124 581 301 c 3
 581 436 535 619 339 619 c 3
EndSplineSet
Validated: 1
EndChar
StartChar: R
Encoding: 82 82 45
Width: 617
VWidth: 0
Flags: W
HStem: 0 16<579.682 612> 291 36<188 284.898> 608 42<188.42 347.031>
VStem: 105 83<36.9668 291 327 606.369> 432 85<396.393 532.436>
LayerCount: 2
Fore
SplineSet
248 608 m 2
 219 608 l 2
 212 608 188 602 188 583 c 2
 188 327 l 1
 234 327 l 2
 334 327 432 368 432 464 c 3
 432 528 376 608 248 608 c 2
188 291 m 1
 188 54 l 6
 188 36 253 26 258 21 c 4
 260 19 262 20 262 -4 c 1
 241 0 178 0 141 0 c 3
 104 0 72 0 45 -4 c 1
 45 8 47 11 51 15 c 4
 63 27 105 33 105 54 c 6
 105 596 l 2
 105 617 63 623 51 635 c 0
 47 639 45 642 45 654 c 1
 72 650 115 650 152 650 c 2
 295 650 l 2
 443 650 517 551 517 488 c 3
 517 409 489 339 381 291 c 1
 517 54 558 16 617 16 c 5
 612 0 l 1
 479 0 l 2
 426 0 341 253 274 281 c 1
 245 283 216 287 188 291 c 1
EndSplineSet
EndChar
StartChar: S
Encoding: 83 83 48
Width: 526
VWidth: 0
Flags: MW
HStem: -10 41<196.489 336.329> 619 41<202.229 352.726>
VStem: 68 93<440.725 560.926> 388 93<82.9313 214.179>
LayerCount: 2
Fore
SplineSet
481 184 m 3
 481 85 434 -10 273 -10 c 3
 152 -10 89 40 70 49 c 1
 50 196 l 1
 60 198 78 199 83 199 c 1
 100 142 175 31 261 31 c 3
 369 31 388 111 388 149 c 3
 388 242 287 273 257 282 c 0
 235 289 68 343 68 471 c 3
 68 564 128 660 288 660 c 3
 350 660 404 637 437 619 c 1
 457 472 l 1
 446 469 429 469 424 469 c 1
 407 526 391 619 276 619 c 3
 169 619 161 541 161 506 c 3
 161 415 256 381 293 369 c 0
 327 358 481 323 481 184 c 3
EndSplineSet
Validated: 1
EndChar
StartChar: T
Encoding: 84 84 41
Width: 609
VWidth: 0
Flags: W
HStem: -4 28<386.077 433.954> 603 47<87.125 264 358 534.531>
VStem: 264 94<40.4312 603>
LayerCount: 2
Fore
SplineSet
358 603 m 25
 358 57 l 2
 358 39 426 29 431 24 c 0
 433 22 435 20 435 -4 c 1
 414 0 348 0 311 0 c 3
 274 0 215 0 188 -4 c 1
 188 8 190 14 194 18 c 0
 206 30 264 36 264 57 c 2
 264 603 l 25
 141 603 l 2
 57 603 23 474 23 474 c 1
 5 480 l 1
 28 650 l 1
 597 650 l 1
 604 480 l 1
 586 474 l 1
 586 474 567 603 483 603 c 2
 358 603 l 25
EndSplineSet
Validated: 1
EndChar
StartChar: U
Encoding: 85 85 49
Width: 713
VWidth: 0
Flags: W
HStem: -10 42<281.207 465.279> 630 20G<35 265 504 683>
VStem: 106 88<127.447 613.192> 575 49<151.156 613.61>
LayerCount: 2
Fore
SplineSet
683 650 m 1
 683 638 682 639 678 635 c 1
 666 623 624 617 624 596 c 10
 624 260 l 18
 624 102 554 -10 348 -10 c 3
 179 -10 106 89 106 260 c 10
 106 596 l 18
 106 614 43 624 38 629 c 1
 36 631 35 626 35 650 c 1
 265 650 l 1
 265 638 263 639 259 635 c 1
 247 623 194 617 194 596 c 10
 194 260 l 18
 194 116 239 32 373 32 c 3
 508 32 575 135 575 260 c 10
 575 596 l 18
 575 614 513 624 508 629 c 1
 506 631 504 626 504 650 c 1
 683 650 l 1
EndSplineSet
EndChar
StartChar: V
Encoding: 86 86 51
Width: 692
VWidth: 0
Flags: W
HStem: -10 21G<343.5 359.5> 630 20G<5 254 485 687>
DStem2: 183 593 76 593 0.361612 -0.932329<-14.3418 518.145> 368 109 386 0 0.361612 0.932329<0 527.707>
LayerCount: 2
Fore
SplineSet
687 650 m 5
 687 638 685 636 681 632 c 4
 669 620 624 613 616 593 c 6
 386 0 l 6
 383 -9 366 -10 353 -10 c 7
 334 -10 308 -10 306 0 c 6
 76 593 l 6
 70 610 13 621 8 626 c 4
 6 628 5 626 5 650 c 5
 254 650 l 5
 254 638 252 636 248 632 c 4
 236 620 183 623 183 593 c 7
 368 109 l 5
 556 593 l 7
 556 611 493 621 488 626 c 4
 486 628 485 626 485 650 c 5
 687 650 l 5
EndSplineSet
Validated: 1
EndChar
StartChar: W
Encoding: 87 87 52
Width: 987
VWidth: 0
Flags: W
HStem: -10 21G<338.5 354.5 652.5 668.5> 630 20G<5 246 343 584 783 972>
DStem2: 175 596 76 596 0.360028 -0.932942<-14.3785 531.864> 367 100 381 0 0.355168 0.934802<0 263.438> 513 596 414 596 0.326675 -0.945137<-15.1362 169.741 250.065 518.033> 684 107 695 0 0.32809 0.944646<0 527.054>
LayerCount: 2
Fore
SplineSet
972 650 m 1
 972 638 971 639 967 635 c 0
 955 623 909 616 902 596 c 2
 695 0 l 2
 692 -10 675 -10 662 -10 c 3
 643 -10 623 -10 620 0 c 2
 506 329 l 1
 381 0 l 2
 378 -9 361 -10 348 -10 c 3
 329 -10 308 -10 306 0 c 2
 76 596 l 2
 70 613 13 624 8 629 c 0
 6 631 5 626 5 650 c 1
 246 650 l 1
 246 638 244 639 240 635 c 0
 228 623 175 626 175 596 c 0
 367 100 l 1
 480 405 l 1
 414 596 l 2
 408 613 351 624 346 629 c 0
 344 631 343 626 343 650 c 1
 584 650 l 1
 584 638 582 639 578 635 c 0
 566 623 513 626 513 596 c 0
 684 107 l 5
 854 596 l 3
 854 614 792 624 787 629 c 0
 785 631 783 626 783 650 c 1
 972 650 l 1
EndSplineSet
EndChar
StartChar: X
Encoding: 88 88 54
Width: 658
VWidth: 0
Flags: W
HStem: -4 21G<11 24.5 209.5 220 446 459.5 619.5 638> 627 23<30.3235 72.7942>
DStem2: 94 54 148 54 0.607015 0.794691<30.7775 320.383 418.814 686.818> 205 591 102 601 0.573563 -0.819162<-14.3147 249.128 319.409 611.952>
LayerCount: 2
Fore
SplineSet
579 58 m 22
 600 28 618 30 631 17 c 5
 635 13 638 9 638 -4 c 1
 601 0 589 0 547 0 c 3
 510 0 473 0 446 -4 c 1
 446 8 448 11 452 15 c 4
 464 27 485 34 485 54 c 4
 322 283 l 25
 148 54 l 23
 148 37 211 26 216 21 c 4
 218 19 220 20 220 -4 c 1
 199 0 162 0 125 0 c 3
 88 0 38 0 11 -4 c 1
 11 8 13 11 17 15 c 4
 29 27 81 37 94 54 c 14
 296 321 l 25
 102 601 l 18
 91 616 39 622 34 627 c 1
 31 630 30 624 30 650 c 1
 240 650 l 1
 240 637 237 637 233 633 c 1
 220 620 205 611 205 591 c 0
 348 387 l 25
 508 596 l 19
 508 617 455 623 443 635 c 0
 439 639 437 638 437 650 c 1
 636 650 l 1
 636 626 633 631 631 629 c 0
 626 624 573 610 562 596 c 10
 373 350 l 25
 579 58 l 22
EndSplineSet
EndChar
StartChar: Y
Encoding: 89 89 55
Width: 601
VWidth: 0
Flags: W
HStem: -4 21G<192 205.5 401.5 412> 630 20G<5 245 404 596>
VStem: 263 77<36.8081 297>
DStem2: 175 596 76 596 0.530254 -0.847839<-10.1782 276.129> 320 361 340 316 0.551257 0.834335<0 285.575>
LayerCount: 2
Fore
SplineSet
596 650 m 1
 596 638 594 639 590 635 c 0
 578 623 537 613 525 596 c 2
 340 316 l 1
 340 54 l 2
 340 36 404 26 409 21 c 0
 411 19 412 20 412 -4 c 1
 391 0 342 0 305 0 c 3
 268 0 219 0 192 -4 c 1
 192 8 194 11 198 15 c 0
 210 27 263 33 263 54 c 2
 263 297 l 1
 76 596 l 2
 66 611 13 624 8 629 c 0
 6 631 5 626 5 650 c 1
 245 650 l 1
 245 638 244 639 240 635 c 0
 228 623 175 626 175 596 c 0
 320 361 l 1
 475 596 l 3
 475 614 412 624 407 629 c 0
 405 631 404 626 404 650 c 1
 596 650 l 1
EndSplineSet
EndChar
StartChar: Z
Encoding: 90 90 58
Width: 575
VWidth: 0
Flags: W
HStem: 0 47<186 442.363> 603 47<138.869 376>
VStem: 60 28<495.795 530.197> 506 28<128.892 164.066>
DStem2: 53 0 186 47 0.472181 0.881502<104.231 684.06>
LayerCount: 2
Fore
SplineSet
503 650 m 9
 186 47 l 25
 388 47 l 2
 422 47 482 80 506 165 c 1
 511 165 525 166 534 162 c 1
 508 12 l 1
 489 3 428 0 376 0 c 2
 53 0 l 25
 376 603 l 17
 188 603 l 6
 142 603 105 551 88 494 c 5
 83 494 69 494 60 498 c 5
 86 632 l 5
 105 641 132 650 176 650 c 6
 503 650 l 9
EndSplineSet
Validated: 1
EndChar
StartChar: bracketleft
Encoding: 91 91 85
Width: 290
VWidth: 0
Flags: W
HStem: -130 43<135 230.093> 672 43<140 235.409>
VStem: 70 65<-87 672>
LayerCount: 2
Fore
SplineSet
240 719 m 1
 239 703 238 690 235 677 c 1
 202 675 180 674 140 672 c 1
 139 422 137 168 135 -87 c 5
 172 -85 203 -84 235 -82 c 5
 233 -97 232 -109 230 -124 c 1
 179 -129 126 -129 70 -130 c 1
 71 151 71 419 75 715 c 1
 132 717 186 718 240 719 c 1
EndSplineSet
EndChar
StartChar: backslash
Encoding: 92 92 82
Width: 320
VWidth: 0
Flags: W
HStem: 685 20G<80 121.5>
VStem: 30 260
LayerCount: 2
Fore
SplineSet
90 705 m 1
 153 458 220 208 290 -45 c 1
 270 -55 255 -60 230 -65 c 1
 155 181 93 433 30 685 c 1
 55 690 70 695 90 705 c 1
EndSplineSet
EndChar
StartChar: bracketright
Encoding: 93 93 86
Width: 300
VWidth: 0
Flags: W
HStem: -129 45<54.5236 148.501> 669 45<58.9531 155>
VStem: 150 65<-80.1899 674>
LayerCount: 2
Fore
SplineSet
59 714 m 1
 115 715 167 718 220 720 c 1
 219 438 217 157 215 -125 c 1
 160 -126 105 -128 50 -129 c 1
 53 -112 54 -98 55 -84 c 1
 87 -82 118 -81 150 -79 c 1
 156 172 154 423 155 674 c 1
 121 673 88 672 54 669 c 1
 57 684 58 699 59 714 c 1
EndSplineSet
Validated: 1
EndChar
StartChar: asciicircum
Encoding: 94 94 98
Width: 500
VWidth: 0
Flags: W
HStem: 441 155
VStem: 220 60<558.408 596>
LayerCount: 2
Fore
SplineSet
250 514 m 1
 209 481 170 465 120 441 c 1
 90 466 l 1
 118 482 220 561 220 596 c 1
 280 596 l 1
 280 561 382 482 410 466 c 1
 380 441 l 1
 330 465 291 481 250 514 c 1
EndSplineSet
Validated: 1
EndChar
StartChar: underscore
Encoding: 95 95 71
Width: 450
VWidth: 0
Flags: W
HStem: -100 55<7.03125 453.74>
LayerCount: 2
Fore
SplineSet
450 -100 m 5
 300 -103 150 -104 0 -105 c 5
 3 -95 4 -90 4 -80 c 3
 4 -70 3 -60 0 -50 c 1
 150 -49 300 -47 450 -45 c 1
 453 -55 454 -65 454 -75 c 3
 454 -85 453 -90 450 -100 c 5
EndSplineSet
EndChar
StartChar: grave
Encoding: 96 96 97
Width: 490
VWidth: 0
Flags: W
HStem: 433 153
VStem: 140 220
LayerCount: 2
Fore
SplineSet
145 550 m 5
 220 586 l 5
 220 551 332 472 360 456 c 13
 331 433 l 21
 267 463 194 480 140 535 c 5
 145 550 l 5
EndSplineSet
EndChar
StartChar: a
Encoding: 97 97 14
Width: 471
VWidth: 0
Flags: MW
HStem: -10 46<130.903 236.453> 386 44<143.251 262.874>
VStem: 35 74<57.809 154.964> 275 76<64.5739 206 234.129 313.962>
LayerCount: 2
Fore
SplineSet
109 110 m 3
 109 63 149 36 185 36 c 27
 224 36 254 63 275 84 c 9
 275 206 l 17
 225 191 109 187 109 110 c 3
351 286 m 10
 351 94 l 22
 351 80 354 55 373 55 c 15
 395 55 409 64 420 86 c 13
 436 63 l 21
 413 14 392 -10 343 -10 c 27
 311 -10 282 7 282 39 c 1
 242 11 197 -10 171 -10 c 3
 97 -10 35 24 35 98 c 3
 35 203 189 214 275 240 c 9
 278 261 282 293 282 315 c 27
 282 349 255 386 225 386 c 3
 154 386 134 374.041648598 134 326 c 3
 134 289.986113789 127 274 95 274 c 3
 71 274 48 283 48 307 c 27
 48 332 58 352 74 365 c 0
 91 379 151 430 237 430 c 3
 333 430 351 396 351 286 c 10
EndSplineSet
EndChar
StartChar: b
Encoding: 98 98 18
Width: 508
VWidth: 0
Flags: W
HStem: -10 34<215.261 324.336> 396 34<200.385 310.834> 620 25<25 68.8812> 684 20G<147.5 163>
VStem: 83 76<70.7773 365.207 398 613.776> 385 88<101.516 310.733>
LayerCount: 2
Fore
SplineSet
159 621 m 6
 159 398 l 1
 187 425 233 430 268 430 c 3
 401 430 473 332 473 214 c 3
 473 67 390 -10 261 -10 c 3
 192 -10 125 11 83 58 c 1
 83 570 l 6
 83 612 60 620 25 620 c 13
 25 645 l 17
 56 645 130 675 165 704 c 1
 161 685 159 665 159 621 c 6
159 343 m 1
 159 131 l 2
 159 71 215 24 275 24 c 3
 326 24 385 70 385 188 c 3
 385 287 350 396 255 396 c 3
 231 396 184 379 159 343 c 1
EndSplineSet
EndChar
StartChar: c
Encoding: 99 99 20
Width: 438
VWidth: 0
Flags: W
HStem: -10 34<212.829 330.382> 396 34<195.835 298.49>
VStem: 35 87<123.952 307.64>
LayerCount: 2
Fore
SplineSet
249 396 m 3
 205 396 122 357 122 228 c 3
 122 127 183 24 269 24 c 3
 320 24 361 55 392 95 c 9
 413 81 l 17
 380 20 333 -10 255 -10 c 3
 120 -10 35 62 35 212 c 3
 35 368 169 430 262 430 c 3
 343 430 400 387 400 364 c 3
 400 342 389 324 362 324 c 3
 330 324 317 396 249 396 c 3
EndSplineSet
EndChar
StartChar: d
Encoding: 100 100 11
Width: 513
VWidth: 0
Flags: MW
HStem: -10 34<197.777 287.701> 396 34<181.414 296.018> 617 25<279 322.881> 681 20G<401.5 417>
VStem: 35 87<112.658 304.798> 337 76<47.683 358.375 411 610.851>
LayerCount: 2
Fore
SplineSet
337 568 m 2
 337 609 314 617 279 617 c 9
 279 642 l 17
 310 642 384 672 419 701 c 1
 415 682 413 662 413 618 c 2
 413 69 l 2
 413 53 422 43 439 43 c 2
 478 43 l 9
 478 23 l 17
 337 -10 l 1
 337 40 l 1
 289 0 251 -10 239 -10 c 3
 104 -10 35 84 35 202 c 3
 35 358 152 430 245 430 c 3
 292 430 314 424 337 411 c 1
 337 568 l 2
337 266 m 2
 337 339 316 396 233 396 c 3
 189 396 122 360.957055215 122 228 c 3
 122 127 166 24 252 24 c 3
 299 24 328 59 337 69 c 1
 337 266 l 2
EndSplineSet
EndChar
StartChar: e
Encoding: 101 101 19
Width: 424
VWidth: 0
Flags: MW
HStem: -10 34<196.748 307.192> 227 38<125 268.462> 396 34<179.682 271.847>
VStem: 35 87<114.322 227 265 313.19> 318 76<265 341.229>
LayerCount: 2
Fore
SplineSet
318 265 m 1
 318 331 287 396 226 396 c 3
 187 396 137 364 125 265 c 1
 318 265 l 1
239 430 m 3
 316 430 394 369 394 240 c 1
 122 227 l 1
 122 126 169 24 245 24 c 3
 296 24 334 53 365 93 c 1
 380 81 l 1
 347 20 311 -10 233 -10 c 3
 98 -10 35 72 35 198 c 3
 35 372 146 430 239 430 c 3
EndSplineSet
EndChar
StartChar: f
Encoding: 102 102 23
Width: 325
VWidth: 0
Flags: W
HStem: -4 27<176.931 231.438> 375 45<47.5025 91 166 286.578> 651 54<224.529 315.645>
VStem: 91 75<32.6212 375 420 565.599>
LayerCount: 2
Fore
SplineSet
166 420 m 1
 312 420 l 1
 286 369 l 1
 280 370 262 375 227 375 c 2
 166 375 l 1
 166 49 l 2
 166 29 222 29 228 23 c 0
 231 20 232 22 232 -4 c 1
 208 -1 166 0 125 0 c 3
 84 0 56 -1 26 -4 c 1
 26 9 28 13 32 17 c 0
 45 30 91 25 91 49 c 2
 91 375 l 1
 59 375 48 372 30 369 c 1
 30 391 36 411 60 420 c 1
 91 420 l 1
 91 455 l 2
 91 639 235 705 308 705 c 3
 365 705 410 650 410 633 c 0
 410 612 366 592 348 592 c 1
 312 636 305 651 244 651 c 3
 204 651 166 607 166 455 c 2
 166 420 l 1
EndSplineSet
EndChar
StartChar: g
Encoding: 103 103 22
Width: 471
VWidth: 0
Flags: MW
HStem: -270 39<161.029 308.596> 117 39<177.248 281.885> 351 61<388 437> 391 39<167.506 261.844>
VStem: 47 85<203.605 340.566> 307 85<195.847 340.553>
LayerCount: 2
Fore
SplineSet
47 260 m 3xec
 47 351 124 430 229 430 c 3xdc
 267 430 300 417 325 398 c 1
 451 412 l 1
 444 396 437 366 437 351 c 1
 368 351 l 1
 384 326 392 300 392 280 c 3
 392 185 324 117 217 117 c 3
 200 117 183 119 168 123 c 1
 150 99 132 71 132 58 c 3
 132 47 281 46 281 46 c 2
 366 39 444 3 444 -107 c 3
 444 -163 352 -270 210 -270 c 3
 111 -270 35 -233 35 -146 c 3
 35 -124 52 -86 119 -26 c 1
 81 -26 41 11 41 46 c 1
 74 60 109 110 124 142 c 1
 74 172 47 222 47 260 c 3xec
217 391 m 3
 170 391 132 351 132 286 c 3
 132 220 169 156 229 156 c 3
 278 156 307 186 307 254 c 3
 307 316 272 391 217 391 c 3
171 -26 m 1
 126 -62 119 -108 119 -146 c 3
 119 -176 153 -231 229 -231 c 3
 273 -231 385 -209 385 -120 c 3
 385 -75 332 -26 269 -26 c 2
 171 -26 l 1
EndSplineSet
Validated: 1
EndChar
StartChar: h
Encoding: 104 104 6
Width: 521
VWidth: 0
Flags: W
HStem: -4 27<184.232 227.438 447.232 490.438> 370 60<242.534 346.601> 617 25<42 88.2764> 681 20G<164.5 180>
VStem: 100 76<30.9572 331.145 352 611.469> 363 76<30.9572 354.997>
LayerCount: 2
Fore
SplineSet
100 568 m 18
 100 611 77 617 42 617 c 9
 42 642 l 17
 73 642 147 672 182 701 c 1
 178 682 176 662 176 618 c 2
 176 352 l 1
 227 403 255 430 337 430 c 3
 407 430 439 374 439 287 c 10
 439 49 l 18
 439 29 481 29 487 23 c 1
 490 20 491 22 491 -4 c 1
 467 -1 444 0 410 0 c 27
 364 0 328 -1 298 -4 c 1
 298 9 301 13 305 17 c 1
 318 30 363 25 363 49 c 10
 363 287 l 18
 363 320 348 370 311 370 c 3
 256 370 233 356 176 318 c 9
 176 49 l 18
 176 29 218 29 224 23 c 1
 227 20 228 22 228 -4 c 1
 204 -1 181 0 147 0 c 27
 101 0 65 -1 35 -4 c 1
 35 9 37 13 41 17 c 1
 54 30 100 25 100 49 c 10
 100 568 l 18
EndSplineSet
EndChar
StartChar: k
Encoding: 107 107 29
Width: 507
VWidth: 0
Flags: W
HStem: -4 27<184.232 227.291 291.562 333.75> 213 34<176 187> 397 23<249.323 289.047> 617 25<42 85.8812> 681 20G<164.5 180>
VStem: 100 76<30.9572 213 247 610.851>
DStem2: 187 247 245 240 0.678513 0.734588<34.2116 170.56> 245 240 187 213 0.69174 -0.722146<0 207.058>
LayerCount: 2
Fore
SplineSet
100 568 m 18
 100 609 77 617 42 617 c 9
 42 642 l 17
 73 642 147 672 182 701 c 1
 178 682 176 662 176 618 c 2
 176 247 l 1
 187 247 l 9
 301 371 l 19
 301 391 258 392 253 397 c 1
 250 400 249 394 249 420 c 1
 431 420 l 1
 431 407 429 407 425 403 c 1
 412 390 382 388 366 371 c 10
 245 240 l 25
 427 50 l 18
 443 33 473 30 486 17 c 1
 490 13 492 10 492 -3 c 1
 462 1 433 1 395 1 c 27
 349 1 314 1 291 -3 c 1
 291 23 292 21 295 24 c 1
 300 29 343 29 343 50 c 0
 187 213 l 17
 176 213 l 9
 176 49 l 18
 176 29 218 29 224 23 c 1
 227 20 228 22 228 -4 c 1
 204 -1 181 0 147 0 c 27
 101 0 65 -1 35 -4 c 1
 35 9 37 13 41 17 c 1
 54 30 100 25 100 49 c 10
 100 568 l 18
EndSplineSet
EndChar
StartChar: l
Encoding: 108 108 8
Width: 268
VWidth: 0
Flags: W
HStem: -4 27<184.232 227.438> 617 25<42 85.8812> 681 20G<164.5 180>
VStem: 100 76<30.9572 610.543>
LayerCount: 2
Fore
SplineSet
176 618 m 2
 176 49 l 18
 176 29 218 29 224 23 c 0
 227 20 228 22 228 -4 c 1
 204 -1 175 0 134 0 c 7
 93 0 65 -1 35 -4 c 1
 35 9 37 13 41 17 c 0
 54 30 100 25 100 49 c 10
 100 568 l 18
 100 608 77 617 42 617 c 9
 42 642 l 17
 73 642 147 672 182 701 c 1
 178 682 176 663 176 618 c 2
EndSplineSet
EndChar
StartChar: m
Encoding: 109 109 7
Width: 763
VWidth: 0
Flags: MW
HStem: -4 27<184.232 227.438 436.232 479.438 689.232 732.438> 370 60<235.983 337.334 494.495 589.055>
VStem: 100 76<30.9572 334.528 354 360.543> 353 75<30.9572 332.106> 605 76<30.9572 354.846>
CounterMasks: 1 38
LayerCount: 2
Fore
SplineSet
100 318 m 2
 100 358 77 367 42 367 c 9
 42 392 l 17
 73 392 147 422 182 451 c 1
 178 432 176 413 176 368 c 2
 176 354 l 1
 227 405 245 430 327 430 c 3
 383 430 409 406 423 346 c 1
 472 394 501 430 579 430 c 3
 649 430 681 373 681 286 c 2
 681 49 l 6
 681 29 723 29 729 23 c 4
 732 20 733 22 733 -4 c 1
 709 -1 693 0 652 0 c 3
 611 0 570 -1 540 -4 c 1
 540 9 543 13 547 17 c 4
 560 30 605 25 605 49 c 6
 605 291 l 2
 605 324 590 370 553 370 c 3
 498 370 485 356 428 318 c 9
 428 49 l 6
 428 29 470 29 476 23 c 4
 479 20 480 22 480 -4 c 1
 456 -1 441 0 400 0 c 3
 359 0 318 -1 288 -4 c 1
 288 9 290 13 294 17 c 4
 307 30 353 25 353 49 c 6
 353 291 l 2
 353 324 338 370 301 370 c 3
 246 370 233 358 176 320 c 1
 176 49 l 6
 176 29 218 29 224 23 c 4
 227 20 228 22 228 -4 c 1
 204 -1 188 0 147 0 c 3
 106 0 65 -1 35 -4 c 1
 35 9 38 13 42 17 c 4
 55 30 100 25 100 49 c 6
 100 318 l 2
EndSplineSet
EndChar
StartChar: n
Encoding: 110 110 0
Width: 516
VWidth: 0
Flags: MW
HStem: -4 30<181.917 227.182 439.917 485.182> 370 60<238.646 339.561>
VStem: 100 76<33.9572 333.059 354 360.543> 358 76<33.9572 354.724>
LayerCount: 2
Fore
SplineSet
176 354 m 1
 228 405 250 430 332 430 c 3
 402 430 434 373 434 286 c 10
 434 52 l 18
 434 32 476 32 482 26 c 1
 485 23 486 22 486 -4 c 1
 462 -1 439 0 405 0 c 27
 359 0 323 -1 293 -4 c 1
 293 9 295 16 299 20 c 1
 312 33 358 28 358 52 c 10
 358 286 l 18
 358 319 343 370 306 370 c 3
 251 370 234 358 176 320 c 1
 176 52 l 2
 176 32 218 32 224 26 c 0
 227 23 228 22 228 -4 c 1
 204 -1 188 0 147 0 c 3
 106 0 65 -1 35 -4 c 1
 35 9 38 16 42 20 c 0
 55 33 100 28 100 52 c 2
 100 318 l 2
 100 358 77 367 42 367 c 9
 42 392 l 17
 73 392 147 422 182 451 c 1
 178 432 176 413 176 368 c 2
 176 354 l 1
EndSplineSet
EndChar
StartChar: o
Encoding: 111 111 12
Width: 475
VWidth: 0
Flags: W
HStem: -10 34<193.598 299.594> 396 34<177.26 285.225>
VStem: 30 87<109.778 304.798> 358 87<102.549 311.249>
LayerCount: 2
Fore
SplineSet
228 396 m 3
 184 396 117 360.957055215 117 228 c 3
 117 124.462311558 161 24 247 24 c 3
 298 24 358 66.2893081761 358 188 c 3
 358 289.438423645 323 396 228 396 c 3
30 202 m 3
 30 358 151.227272727 430 240 430 c 3
 366.813953488 430 445 332 445 214 c 3
 445 67 357.162895928 -10 234 -10 c 3
 105.308411215 -10 30 84 30 202 c 3
EndSplineSet
EndChar
StartChar: p
Encoding: 112 112 17
Width: 529
VWidth: 0
Flags: W
HStem: -274 27<191.738 245.438> -10 34<227.063 346.383> 367 25<47 90.8812> 396 34<230.36 332.817>
VStem: 105 76<-237.586 46 56.436 359.99> 407 87<101.516 310.733>
LayerCount: 2
Fore
SplineSet
105 318 m 2
 105 358 82 367 47 367 c 9
 47 392 l 17
 78 392 152 422 187 451 c 1
 183 432 181 412 181 367 c 1
 210 406 247 430 290 430 c 3
 423 430 494 332 494 214 c 3
 494 67 413 -10 284 -10 c 3
 246 -10 209 12 181 46 c 1
 181 -221 l 6
 181 -241 236 -241 242 -247 c 4
 245 -250 246 -248 246 -274 c 1
 222 -271 180 -270 139 -270 c 3
 98 -270 70 -271 40 -274 c 1
 40 -261 42 -258 46 -254 c 4
 59 -241 105 -245 105 -221 c 6
 105 318 l 2
181 328 m 1
 181 87 l 1
 199 51 233 24 296 24 c 3
 347 24 407 70 407 188 c 3
 407 287 372 396 277 396 c 3
 235 396 202 368 181 328 c 1
EndSplineSet
EndChar
StartChar: q
Encoding: 113 113 13
Width: 474
VWidth: 0
Flags: W
HStem: -274 27<420.232 463.438> -10 34<197.777 294.194> 396 34<182.563 293.244>
VStem: 35 87<112.658 303.983> 337 75<-238.99 30 42.0676 355.875>
LayerCount: 2
Fore
SplineSet
35 202 m 3
 35 358 152 430 245 430 c 3
 292 430 332 418 357 397 c 1
 419 430 l 1
 415 411 412 381 412 339 c 2
 412 -221 l 2
 412 -241 454 -241 460 -247 c 0
 463 -250 464 -248 464 -274 c 1
 440 -271 411 -270 370 -270 c 3
 329 -270 301 -271 271 -274 c 1
 271 -261 274 -258 278 -254 c 0
 291 -241 337 -245 337 -221 c 2
 337 30 l 1
 304 6 251 -10 239 -10 c 3
 104 -10 35 84 35 202 c 3
337 261 m 2
 337 334 316 396 233 396 c 7
 189 396 122 357 122 228 c 3
 122 127 166 24 252 24 c 3
 299 24 327 49 336 59 c 1
 337 261 l 2
EndSplineSet
EndChar
StartChar: r
Encoding: 114 114 9
Width: 401
VWidth: 0
Flags: MW
HStem: -4 27<192.114 267.438> 359 71<255.771 331.078>
VStem: 100 76<34.6369 322.336 341 360.543>
LayerCount: 2
Fore
SplineSet
100 318 m 22
 100 358 77 367 42 367 c 13
 42 392 l 17
 73 392 147 422 182 451 c 1
 178 432 176 413 176 368 c 6
 176 341 l 5
 227 392 282 430 295 430 c 3
 352 430 376 395 376 378 c 3
 376 357 330 314 312 314 c 1
 306 330 301 359 263 359 c 3
 223 359 210 343 176 292 c 13
 176 49 l 17
 176 29 259 28 264 23 c 1
 267 20 268 22 268 -4 c 1
 245 0 191 0 157 0 c 27
 111 0 65 0 35 -4 c 1
 35 9 38 13 42 17 c 1
 55 30 100 26 100 49 c 9
 100 318 l 22
EndSplineSet
EndChar
StartChar: s
Encoding: 115 115 21
Width: 371
VWidth: 0
Flags: MW
HStem: -10 39<111.806 236.292> 391 39<134.565 245.491>
VStem: 38 80<277.167 372.616> 256 80<47.7465 143.712>
LayerCount: 2
Fore
SplineSet
336 125 m 3
 336 16 258 -10 185 -10 c 3
 128 -10 72 6 51 16 c 1
 35 116 l 1
 45 120 50 120 55 120 c 1
 73 58 134 29 172 29 c 7
 232 29 256 57 256 99 c 3
 256 146 200 169 168 179 c 0
 144 187 38 214 38 300 c 3
 38 402 129 430 202 430 c 3
 259 430 271 421 292 411 c 1
 307 310 l 1
 298 308 292 307 287 307 c 1
 269 369 227 391 189 391 c 3
 140 391 118 364 118 326 c 3
 118 277 168 251 208 238 c 0
 246 226 336 195 336 125 c 3
EndSplineSet
EndChar
StartChar: t
Encoding: 116 116 24
Width: 357
VWidth: 0
Flags: W
HStem: -10 39<198.392 285.086> 375 45<179 302.156>
VStem: 93 86<44.8524 375>
LayerCount: 2
Fore
SplineSet
166 515 m 3
 178 515 179 505 179 505 c 1
 179 420 l 1
 327 420 l 1
 301 370 l 1
 295 371 284 375 249 375 c 2
 179 375 l 1
 179 173 l 2
 179 72 189 29 237 29 c 3
 270 29 296 53 327 93 c 1
 347 81 l 1
 314 20 271 -10 223 -10 c 3
 134 -10 93 36 93 154 c 2
 93 375 l 1
 35 375 l 1
 35 388 44 397 55 408 c 2
 55 408 156 515 166 515 c 3
EndSplineSet
Validated: 1
EndChar
StartChar: u
Encoding: 117 117 10
Width: 542
VWidth: 0
Flags: MW
HStem: -10 54<190.557 303.745> 390 27<30.5622 82.259 273.562 331.697>
VStem: 88 74<73.2884 383.904> 338 74<62.2466 383.36>
LayerCount: 2
Fore
SplineSet
412 430 m 1
 412 82 l 18
 412 60 429 50 451 50 c 3
 465 50 485 57 497 63 c 9
 497 24 l 17
 331 -10 l 1
 334 0 338 8 338 32 c 2
 338 37 l 1
 306 5 260 -10 214 -10 c 3
 128 -10 88 56 88 146 c 10
 88 368 l 18
 88 388 39 385 34 390 c 1
 31 393 30 391 30 417 c 1
 53 417 128 430 162 430 c 1
 162 133 l 2
 162 99 186 44 240 44 c 3
 276 44 301 48 338 77 c 9
 338 368 l 18
 338 388 282 385 277 390 c 1
 274 393 273 391 273 417 c 1
 301 417 368 430 412 430 c 1
EndSplineSet
EndChar
StartChar: v
Encoding: 118 118 25
Width: 442
VWidth: 0
Flags: W
HStem: -10 21G<214.5 228.5> 397 23<289.323 328.099>
DStem2: 140 371 57 371 0.346408 -0.938084<-11.8289 296.958> 239 91 249 0 0.34418 0.938904<0 307.604>
LayerCount: 2
Fore
SplineSet
437 420 m 1
 437 407 435 407 431 403 c 0
 418 390 393 393 385 371 c 2
 249 0 l 2
 245 -10 236 -10 221 -10 c 3
 208 -10 198 -10 194 0 c 2
 57 371 l 2
 50 389 14 392 9 397 c 0
 6 400 5 394 5 420 c 1
 205 420 l 1
 205 407 202 407 198 403 c 0
 185 390 140 397 140 371 c 0
 239 91 l 1
 341 371 l 3
 341 390 298 392 293 397 c 0
 290 400 289 394 289 420 c 1
 437 420 l 1
EndSplineSet
EndChar
StartChar: w
Encoding: 119 119 26
Width: 650
VWidth: 0
Flags: W
HStem: -10 21G<201.5 215.5 422.5 436.5> 397 23<497.323 536.099>
DStem2: 140 371 57 371 0.316995 -0.948427<-12.7476 284.288> 229 101 236 0 0.342328 0.939581<0 182.089> 374 371 301 371 0.262677 -0.964884<-13.7419 26.4316 97.4741 284.079> 449 97 457 0 0.34418 0.938904<0 301.283>
LayerCount: 2
Fore
SplineSet
192 420 m 1
 192 407 189 407 185 403 c 0
 172 390 140 393 140 371 c 1
 229 101 l 5
 313 327 l 1
 301 371 l 2
 295 389 258 392 253 397 c 0
 250 400 249 394 249 420 c 1
 439 420 l 1
 439 407 436 407 432 403 c 0
 419 390 374 397 374 371 c 1
 449 97 l 1
 549 371 l 1
 549 390 506 392 501 397 c 0
 498 400 497 394 497 420 c 1
 645 420 l 1
 645 407 643 407 639 403 c 0
 626 390 602 393 593 371 c 2
 457 0 l 2
 453 -10 444 -10 429 -10 c 3
 416 -10 405 -9 402 0 c 2
 330 258 l 1
 236 0 l 2
 232 -10 223 -10 208 -10 c 3
 195 -10 184 -10 181 0 c 2
 57 371 l 2
 50 389 14 392 9 397 c 0
 6 400 5 394 5 420 c 1
 192 420 l 1
EndSplineSet
EndChar
StartChar: x
Encoding: 120 120 30
Width: 450
VWidth: 0
Flags: W
HStem: -4 27<129.164 175.438> 397 23<15.875 61.9844 263.562 296.104>
DStem2: 165 371 67 381 0.563717 -0.825968<-9.46616 120.104 194.73 351.003> 70 49 127 45 0.578156 0.815926<23.1672 179.772 276.191 402.568>
LayerCount: 2
Fore
SplineSet
359 0 m 3
 322 0 285 0 258 -4 c 1
 258 8 260 11 264 15 c 0
 276 27 297 27 297 44 c 0
 213 168 l 25
 127 45 l 19
 127 18 167 28 172 23 c 1
 175 20 176 22 176 -4 c 1
 153 0 130 0 95 0 c 27
 62 0 45 0 10 -4 c 1
 10 9 13 13 17 17 c 1
 30 30 47 18 70 49 c 10
 186 213 l 25
 67 381 l 18
 56 396 24 392 19 397 c 1
 16 400 15 394 15 420 c 1
 200 420 l 1
 200 407 197 407 193 403 c 1
 180 390 165 388 165 371 c 0
 233 272 l 25
 302 371 l 3
 302 397 272 388 267 393 c 1
 264 396 263 394 263 420 c 1
 424 420 l 1
 424 407 421 404 417 400 c 1
 404 387 376 396 358 371 c 10
 258 231 l 25
 381 48 l 18
 402 18 420 30 433 17 c 1
 437 13 440 9 440 -4 c 1
 403 0 401 0 359 0 c 3
EndSplineSet
EndChar
StartChar: y
Encoding: 121 121 28
Width: 453
VWidth: 0
Flags: W
HStem: -270 21G<161 169> 397 23<287.323 326.099>
VStem: 96 73<-261.862 -203.74>
DStem2: 140 371 57 371 0.351393 -0.936228<-11.7147 292.953> 200 -10 255 0 0.342733 0.939433<-184.568 0 113.632 415.253>
LayerCount: 2
Fore
SplineSet
448 420 m 1
 448 407 446 407 442 403 c 0
 429 390 405 393 396 371 c 2
 255 0 l 2
 196 -151 169 -231 169 -270 c 1
 153 -269 112 -266 96 -260 c 1
 96 -228 136 -190 200 -10 c 1
 57 371 l 2
 50 389 14 392 9 397 c 0
 6 400 5 394 5 420 c 1
 205 420 l 1
 205 407 202 407 198 403 c 0
 185 390 140 397 140 371 c 0
 241 96 l 1
 339 371 l 3
 339 390 296 392 291 397 c 0
 288 400 287 394 287 420 c 1
 448 420 l 1
EndSplineSet
EndChar
StartChar: z
Encoding: 122 122 27
Width: 410
VWidth: 0
Flags: W
HStem: 0 62<136 324.057> 358 62<88.64 281>
VStem: 38 21<287.688 311.414> 358 20<107.973 129.312>
DStem2: 30 0 136 62 0.574076 0.818802<111.618 437.224>
LayerCount: 2
Fore
SplineSet
380 420 m 9
 136 62 l 25
 241 62 l 2
 279 62 340 69 358 131 c 1
 363 131 368 131 378 127 c 1
 363 13 l 1
 342 3 285 0 228 0 c 2
 30 0 l 25
 281 358 l 17
 156 358 l 2
 118 358 77 348 59 286 c 1
 54 286 48 286 38 290 c 1
 54 400 l 1
 75 410 86 420 143 420 c 2
 380 420 l 9
EndSplineSet
EndChar
StartChar: braceleft
Encoding: 123 123 169
Width: 330
VWidth: 0
Flags: W
HStem: -140 24<258.697 295> 686 24<263.908 300>
VStem: 60 240
LayerCount: 2
Fore
SplineSet
295 -140 m 21
 15 -140 214 241 60 287 c 5
 212 349 22 710 300 710 c 13
 300 686 l 21
 125 686 247 301 154 287 c 5
 246 265 132 -116 295 -116 c 13
 295 -140 l 21
EndSplineSet
Validated: 1
EndChar
StartChar: bar
Encoding: 124 124 83
Width: 204
VWidth: 0
Flags: W
HStem: -4 21G<96 107> 630 20G<70 75 128.5 134>
VStem: 70 64<-3.64167 649>
LayerCount: 2
Fore
SplineSet
134 0 m 1
 123 -3 113 -4 101 -4 c 3
 91 -4 81 -3 70 0 c 1
 70 650 l 1
 80 649 90 649 100 649 c 3
 112 649 123 649 134 650 c 1
 134 0 l 1
EndSplineSet
Validated: 1
EndChar
StartChar: braceright
Encoding: 125 125 170
Width: 320
VWidth: 0
Flags: W
HStem: -140 24<20 56.3352> 686 24<25 61.0603>
VStem: 20 240
LayerCount: 2
Fore
SplineSet
20 -140 m 9
 20 -116 l 17
 183 -116 74 265 166 287 c 1
 73 301 200 686 25 686 c 9
 25 710 l 17
 303 710 108 349 260 287 c 1
 106 241 300 -140 20 -140 c 9
EndSplineSet
Validated: 1
EndChar
StartChar: asciitilde
Encoding: 126 126 152
Width: 500
VWidth: 0
Flags: W
HStem: 170 57<269.753 366.558> 233 57<130.431 226.178>
LayerCount: 2
Fore
SplineSet
80 173 m 13
 60 190 l 17
 82 226 129 290 195 290 c 27
 248 290 267 227 320 227 c 27
 367 227 394 261 420 297 c 9
 440 280 l 17
 408 222 366 170 295 170 c 27
 245 170 230 233 180 233 c 27
 135 233 102 209 80 173 c 13
EndSplineSet
EndChar
StartChar: cent
Encoding: 162 162 144
Width: 438
VWidth: 0
Flags: MW
HStem: -9 33<272 326.269> 394 34<190.84 229>
VStem: 35 87<126.919 308.658> 229 48<177.988 389 426.628 530.328>
LayerCount: 2
Fore
SplineSet
270 -107 m 1
 252 -108 238 -109 220 -110 c 1
 221 -76 221 -42 222 -8 c 1
 106 3 35 75 35 212 c 3
 35 350 140 415 229 428 c 1
 229 462 230 496 230 530 c 1
 248 531 262 532 280 533 c 1
 279 498 279 464 278 429 c 1
 348 422 395 385 395 364 c 3
 395 342 384 324 357 324 c 3
 331 324 317 371 277 389 c 1
 275 271 274 143 272 24 c 1
 319 27 361 57 390 95 c 1
 413 81 l 1
 383 26 337 -4 271 -9 c 1
 271 -42 270 -74 270 -107 c 1
223 34 m 1
 225 150 228 278 229 394 c 1
 186 385 122 339 122 228 c 3
 122 146 165 62 223 34 c 1
EndSplineSet
EndChar
StartChar: sterling
Encoding: 163 163 184
Width: 536
VWidth: 0
Flags: W
HStem: -11 62<240.328 410.555> 30 64<161 218.006> 275 45<46.5025 118 201 355.578> 607 54<272.242 380.791>
DStem2: 90 112 161 94 0.174563 0.984646<-5.32963 165.385 224.183 468.798>
LayerCount: 2
Fore
SplineSet
161 94 m 1x70
 206 94 267 51 337 51 c 3
 420 51 465 94 478 127 c 1
 511 117 l 1
 495 80 441 -11 315 -11 c 3xb0
 256 -11 170 30 129 30 c 3
 88 30 45 -7 15 -10 c 1
 15 3 17 10 21 14 c 0
 34 27 78 46 90 112 c 2
 118 275 l 1
 90 275 l 2
 58 275 47 272 29 269 c 1
 29 291 35 311 59 320 c 1
 126 320 l 1
 150 455 l 2
 183 639 304 661 377 661 c 3
 434 661 479 606 479 589 c 3
 479 568 435 543 417 543 c 1
 381 587 374 607 313 607 c 3
 273 607 244 562 225 455 c 2
 201 320 l 1
 381 320 l 1
 355 269 l 1
 349 270 261 275 226 275 c 2
 192 275 l 1
 161 94 l 1x70
EndSplineSet
EndChar
StartChar: currency
Encoding: 164 164 199
Width: 512
Flags: W
HStem: -10 21G<45 85 427 467> 20 51<186.835 327.369> 334 51<185.601 325.816> 410 20G<45.5556 85 426.256 466.571>
VStem: 72 57<130.28 279.237> 383 57<127.25 277.153>
LayerCount: 2
Fore
SplineSet
256 71 m 3
 322 71 383 120 383 204 c 3
 383 288 316 334 256 334 c 3
 200 334 129 294 129 204 c 3
 129 126 190 71 256 71 c 3
30 394 m 1
 65 430 l 1
 144 351 l 1
 175 373 213 385 256 385 c 3
 300 385 339 373 369 352 c 1
 446 430 l 1
 482 395 l 1
 405 318 l 1
 427 288 440 250 440 204 c 3
 440 163 429 127 410 97 c 1
 482 25 l 1
 447 -10 l 1
 377 60 l 1
 346 35 305 20 256 20 c 3
 207 20 166 35 135 60 c 1
 65 -10 l 1
 30 25 l 1
 102 97 l 1
 83 127 72 164 72 204 c 3
 72 248 86 286 109 316 c 1
 30 394 l 1
EndSplineSet
Validated: 1
EndChar
StartChar: yen
Encoding: 165 165 171
Width: 604
VWidth: 0
Flags: W
HStem: -4 21G<192 205.5 398.5 409> 150 49<159.724 263 337 442.193> 242 51<169.812 263 337 452.46> 630 20G<5 245 404 599>
VStem: 263 74<36.8081 149 199 241 293 297>
DStem2: 175 596 76 596 0.530254 -0.847839<-10.1782 276.129> 320 361 337 306 0.55004 0.835139<0 285.4>
LayerCount: 2
Fore
SplineSet
599 650 m 1
 599 638 597 639 593 635 c 0
 581 623 540 613 528 596 c 2
 337 306 l 1
 337 293 l 1
 380 293 423 293 462 294 c 1
 459 276 457 262 452 244 c 1
 416 243 377 242 337 242 c 1
 337 199 l 1
 377 199 416 200 452 201 c 1
 448 183 444 169 442 151 c 1
 409 150 373 150 337 150 c 1
 337 54 l 2
 337 36 401 26 406 21 c 0
 408 19 409 20 409 -4 c 1
 388 0 342 0 305 0 c 3
 268 0 219 0 192 -4 c 1
 192 8 194 11 198 15 c 0
 210 27 263 33 263 54 c 2
 263 149 l 1
 223 149 185 148 150 146 c 1
 156 164 157 178 160 196 c 1
 192 197 227 197 263 198 c 1
 263 241 l 1
 227 240 192 240 160 239 c 1
 166 256 168 270 170 289 c 1
 200 290 231 290 263 291 c 1
 263 297 l 1
 76 596 l 2
 66 611 13 624 8 629 c 0
 6 631 5 626 5 650 c 1
 245 650 l 1
 245 638 244 639 240 635 c 0
 228 623 175 626 175 596 c 1
 320 361 l 1
 475 596 l 1
 475 614 412 624 407 629 c 0
 405 631 404 626 404 650 c 1
 599 650 l 1
EndSplineSet
EndChar
StartChar: brokenbar
Encoding: 166 166 145
Width: 189
VWidth: 0
Flags: W
HStem: -5 21G<83 93.5> 630 20G<64.5 70 123 128.5>
VStem: 63 64<-3.33984 277 369.035 649>
LayerCount: 2
Fore
SplineSet
127 370 m 1
 116 369 106 369 94 369 c 3
 84 369 74 369 63 370 c 1
 64 465 64 558 65 650 c 1
 75 649 84 649 92 649 c 3
 106 649 117 650 129 650 c 1
 128 548 128 453 127 370 c 1
124 0 m 1
 112 -2 100 -5 87 -5 c 3
 79 -5 70 -4 60 0 c 1
 61 93 61 187 62 280 c 1
 71 278 80 277 88 277 c 3
 101 277 113 279 126 280 c 1
 125 187 126 96 124 0 c 1
EndSplineSet
EndChar
StartChar: section
Encoding: 167 167 186
Width: 450
VWidth: 0
Flags: W
HStem: -200 37<185.741 309.482> 583 37<139.229 249.575>
VStem: 52 53<235.456 344.248 454.171 546.764> 357 53<-115.59 -23.1084 99.8348 195.296>
LayerCount: 2
Fore
SplineSet
365 66 m 1
 391 38 410 4 410 -36 c 3
 410 -135 329 -200 212 -200 c 3
 131 -200 40 -135 40 -118 c 0
 40 -97 94 -72 112 -72 c 1
 148 -116 185 -163 246 -163 c 3
 320 -163 357 -109 357 -71 c 3
 357 -7 238 44 211 62 c 0
 192 75 52 147 52 251 c 3
 52 295 65 339 93 374 c 1
 70 402 52 434 52 471 c 3
 52 564 134 620 222 620 c 3
 321 620 384 565 384 548 c 0
 384 527 330 502 312 502 c 1
 276 546 249 583 188 583 c 3
 150 583 105 554 105 506 c 3
 105 441 213 387 247 369 c 0
 281 351 410 289 410 184 c 3
 410 141 394 100 365 66 c 1
120 346 m 1
 110 326 105 305 105 286 c 3
 105 221 213 167 247 149 c 0
 264 140 303 121 339 91 c 1
 352 112 357 134 357 149 c 3
 357 213 238 264 211 282 c 0
 201 289 159 311 120 346 c 1
EndSplineSet
Validated: 1
EndChar
StartChar: copyright
Encoding: 169 169 197
Width: 822
Flags: W
HStem: -40 36<305.357 521.189> 103 32<372.57 523.569> 501 31<360.635 485.871> 639 36<302.815 513.678>
VStem: 50 48<193.205 443.073> 207 71<231.072 412.164> 724 48<198.918 444.798>
LayerCount: 2
Fore
SplineSet
522 461 m 1
 487 494 446 501 406 501 c 3
 352 501 278 431 278 326 c 3
 278 223 348 135 429 135 c 3
 484 135 528 147 563 171 c 9
 571 141 l 17
 531 111 479 103 421 103 c 3
 289 103 207 186 207 310 c 3
 207 444 297 532 413 532 c 3
 477 532 518 518 561 502 c 1
 545 410 l 1
 538 414 l 1
 522 461 l 1
411 675 m 3
 623 675 772 540 772 321 c 3
 772 114 633 -40 411 -40 c 3
 187 -40 50 115 50 321 c 3
 50 531 208 675 411 675 c 3
411 -4 m 3
 639 -4 724 177 724 321 c 7
 724 556 537 639 411 639 c 3
 238 639 98 517 98 321 c 3
 98 78 281 -4 411 -4 c 3
EndSplineSet
EndChar
StartChar: ordfeminine
Encoding: 170 170 180
Width: 252
VWidth: 0
Flags: MW
HStem: 420 30<59.1545 127.178 171.5 218.537> 632 28<75.9672 136.731>
VStem: 10 44<452.951 516.632> 141 46<457.141 547 562.542 630.526>
LayerCount: 2
Fore
SplineSet
54 483 m 3
 54 458 75 450 94 450 c 27
 115 450 130 464 141 475 c 9
 141 547 l 17
 115 529 54 524 54 483 c 3
187 584 m 10
 187 475 l 18
 187 468 188 455 198 455 c 11
 210 455 217 459 223 471 c 9
 232 456 l 17
 220 430 206 420 180 420 c 27
 163 420 145 429 145 446 c 1
 124 431 100 420 86 420 c 3
 47 420 10 438 10 477 c 3
 10 532 97 547 141 573 c 9
 141 600 l 26
 141 618 131 632 115 632 c 3
 78 632 75 619 70 605 c 0
 65 592 62 581 49 581 c 27
 36 581 21 585 21 598 c 27
 21 611 27 619 35 626 c 0
 44 633 76 660 121 660 c 3
 172 660 187 642 187 584 c 10
EndSplineSet
EndChar
StartChar: logicalnot
Encoding: 172 172 164
Width: 450
VWidth: 0
Flags: MW
HStem: 260 50<120.688 335>
VStem: 330 55<129.725 260>
LayerCount: 2
Fore
SplineSet
335 260 m 5
 242 256 143 252 50 250 c 1
 56 272 58 283 60 305 c 1
 170 306 282 306 390 310 c 1
 388 250 388 190 385 130 c 1
 368 127 352 126 330 125 c 5
 335 163 333 220 335 260 c 5
EndSplineSet
EndChar
StartChar: uni00AD
Encoding: 173 173 156
Width: 400
VWidth: 0
Flags: W
HStem: 205 50<79.7244 300.684>
VStem: 70 240
LayerCount: 2
Fore
SplineSet
300 210 m 5
 217 210 153 210 70 205 c 5
 76 221 77 236 80 255 c 1
 161 259 226 259 310 260 c 1
 307 241 305 224 300 210 c 5
EndSplineSet
EndChar
StartChar: registered
Encoding: 174 174 198
Width: 428
Flags: W
HStem: 340 20<158.682 272.299> 421 6<187.75 201.931 301.473 315> 511 17<177 194.59> 613 21<177 233.255> 685 20<157.081 267.827>
VStem: 30 26<454.681 590.198> 146 31<429.458 511 528 612.927> 254 30<542.338 598.785> 372 26<455.902 591.431>
LayerCount: 2
Fore
SplineSet
214 360 m 3
 330 360 372 451 372 524 c 3
 372 644 278 685 214 685 c 3
 126 685 56 624 56 524 c 3
 56 400 148 360 214 360 c 3
214 705 m 3
 322 705 398 636 398 524 c 3
 398 418 327 340 214 340 c 3
 100 340 30 419 30 524 c 3
 30 631 110 705 214 705 c 3
196 613 m 2
 190 613 l 2
 188 613 177 610 177 604 c 2
 177 528 l 1
 194 528 l 2
 216 528 254 539 254 571 c 3
 254 602 215 613 196 613 c 2
177 511 m 1
 177 435 l 6
 177 429 198 430 200 428 c 4
 201 427 202 427 202 419 c 1
 195 420 171 421 159 421 c 3
 147 421 135 420 126 419 c 1
 126 423 127 425 128 426 c 4
 132 430 146 428 146 435 c 6
 146 619 l 2
 146 629 126 621 126 635 c 1
 135 634 149 634 161 634 c 2
 206 634 l 2
 256 634 284 602 284 580 c 3
 284 551 273 522 229 510 c 1
 286 432 298 427 317 427 c 1
 315 421 l 1
 259 421 l 2
 252 421 210 510 177 511 c 1
EndSplineSet
EndChar
StartChar: macron
Encoding: 175 175 157
Width: 500
VWidth: 0
Flags: W
HStem: 495 55<105 395.363>
VStem: 100 300
LayerCount: 2
Fore
SplineSet
395 500 m 5
 301 497 198 497 100 495 c 5
 101 510 105 527 105 550 c 1
 203 552 302 550 400 555 c 1
 399 535 399 520 395 500 c 5
EndSplineSet
EndChar
StartChar: degree
Encoding: 176 176 94
Width: 335
VWidth: 0
Flags: W
HStem: 450 39<125.59 210.546> 636 39<120.953 216.182>
VStem: 55 47<510.005 618.712> 233 47<508.168 622.064>
LayerCount: 2
Fore
SplineSet
168 636 m 3
 128 636 102 605 102 568 c 3
 102 528 128 489 167 489 c 3
 198 489 233 513 233 568 c 7
 233 611 208 636 168 636 c 3
55 562 m 3
 55 619 96 675 170 675 c 3
 258 675 280 615 280 574 c 7
 280 491 242 450 164 450 c 3
 74 450 55 515 55 562 c 3
EndSplineSet
Validated: 1
EndChar
StartChar: plusminus
Encoding: 177 177 163
Width: 425
VWidth: 0
Flags: W
HStem: 0 45<69.7244 350.684> 203 50<69.7244 191 242 355.287>
VStem: 192 50<75 203 253 375.449>
LayerCount: 2
Fore
SplineSet
350 5 m 1
 267 5 143 5 60 0 c 1
 66 16 67 26 70 45 c 1
 151 49 276 49 360 50 c 1
 357 31 355 19 350 5 c 1
EndSplineSet
Refer: 72 43 N 1 0 0 1 0 0 2
Validated: 1
EndChar
StartChar: uni00B2
Encoding: 178 178 182
Width: 218
VWidth: 0
Flags: MW
HStem: 430 40<88 197.497> 653 27<71.2945 126.287>
VStem: 23 22<595.607 619.513> 139 50<558.315 647.685> 199 9<481.043 487.974>
LayerCount: 2
Fore
SplineSet
189 615 m 3
 189 576.664411272 137 505.214285714 88 470 c 9
 157 470 l 2
 176 470 195 475 199 488 c 1
 201.454545455 488 203.090909091 488 208 487 c 1
 198 437 l 1
 187.379310345 432 170 430 142 430 c 2
 10 430 l 17
 103.629032258 509 139 577.913085938 139 601 c 3
 139 634.975765306 120.864442568 653 97 653 c 3
 76.7763671875 653 55 625.581818182 45 595 c 1
 42.36 595 27.4 595 23 597 c 1
 32 637 l 2
 37.3648062928 661.866210938 69.397260274 680 102 680 c 3
 144 680 189 661.010742188 189 615 c 3
EndSplineSet
EndChar
StartChar: uni00B3
Encoding: 179 179 183
Width: 189
VWidth: 0
Flags: MW
HStem: 425 20<51.1259 98.8138> 655 25<49.5268 101.158>
VStem: 16 19<460.269 480.737 616.744 626> 124 50<459.145 542.316>
LayerCount: 2
Fore
SplineSet
161 624 m 3
 161 593.983398438 139 571 119 567 c 1
 145 564 174 537 174 503 c 3
 174 466.986328125 127 425 69 425 c 3
 35.9892578125 425 21.482421875 432 16 435 c 1
 10 480 l 1
 13.2001953125 481 27.599609375 481 30 481 c 1
 35 463 61 445 72 445 c 3
 98 445 124 471.694335938 124 498 c 3
 124 533 91 555 75 556 c 2
 64 557 l 1
 64 574 l 1
 73 576 l 2
 99 582 116 592.913085938 116 616 c 3
 116 636 92 655 73 655 c 7
 59 655 37 636 35 616 c 1
 33.4169921875 616 18.375 616 16 617 c 1
 20 653 l 1
 24.6669921875 657 54.484375 680 90 680 c 3
 122 680 161 655 161 624 c 3
EndSplineSet
EndChar
StartChar: acute
Encoding: 180 180 101
Width: 490
VWidth: 0
Flags: W
HStem: 433 153
VStem: 130 220
LayerCount: 2
Fore
SplineSet
345 550 m 5
 350 535 l 5
 296 480 223 463 159 433 c 13
 130 456 l 21
 158 472 270 551 270 586 c 5
 345 550 l 5
EndSplineSet
EndChar
StartChar: mu
Encoding: 181 181 187
Width: 526
VWidth: 0
Flags: MW
HStem: -10 54<154.07 270.265> -10 34<392.309 460.539> 400 20G<50 126 302 378>
VStem: 50 76<72.4271 420> 302 76<73.095 420> 486 20<65.2189 85.2>
LayerCount: 2
Fore
SplineSet
302 420 m 1xbc
 378 420 l 1
 378 173 l 2
 378 72 378 24 426 24 c 3
 459 24 476 54 486 93 c 1
 506 81 l 1
 496 32 460 -10 412 -10 c 3x7c
 371 -10 344 8 323 50 c 1
 280 11 240 -10 178 -10 c 3
 145 -10 116 0 94 17 c 1
 97 -105 116 -164 116 -188 c 3
 116 -209 103 -244 72 -244 c 3
 40 -244 30 -203 30 -188 c 3
 30 -172 50 -97 50 45 c 2
 50 420 l 1
 126 420 l 1
 126 133 l 2
 126 99 150 44 204 44 c 3
 240 44 265 58 302 87 c 1
 302 420 l 1xbc
EndSplineSet
EndChar
StartChar: paragraph
Encoding: 182 182 185
Width: 527
VWidth: 0
Flags: MW
HStem: -4 28<190.818 255.977> 634 16G<146 326 473.5 487>
VStem: 264 62<33.1309 268> 365 62<29.4214 620.579>
LayerCount: 2
Fore
SplineSet
365 0 m 1
 365 650 l 17
 402 650 460 650 487 654 c 1
 487 642 485 636 481 632 c 0
 469 620 427 624 427 603 c 2
 427 47 l 2
 427 26 469 30 481 18 c 0
 485 14 487 8 487 -4 c 1
 460 -1 402 0 365 0 c 1
326 650 m 17
 326 0 l 1
 289 0 212 -1 190 -4 c 5
 190 19 191 21 194 24 c 4
 199 29 264 29 264 47 c 2
 264 268 l 1
 245 268 l 2
 88 268 25 354 25 479 c 3
 25 542 85 650 207 650 c 2
 326 650 l 17
EndSplineSet
Validated: 1
EndChar
StartChar: periodcentered
Encoding: 183 183 148
Width: 254
VWidth: 0
Flags: W
HStem: 160 86<82.3462 161.314>
VStem: 80 84<161.715 243.882>
LayerCount: 2
Fore
SplineSet
122 246 m 27
 147 246 164 242 164 203 c 3
 164 160 147 160 122 160 c 27
 97 160 80 162 80 203 c 3
 80 244 97 246 122 246 c 27
EndSplineSet
EndChar
StartChar: cedilla
Encoding: 184 184 149
Width: 250
VWidth: 0
Flags: MW
HStem: -195 15<72.6667 86.4055>
VStem: 150 50<-127.783 -65.5332>
LayerCount: 2
Fore
SplineSet
150 -95 m 3
 150 -69.974609375 98.7734375 -46.0625 81 -46 c 9
 99 10 l 25
 150 10 l 1
 140 -30 l 1
 159 -30 200 -59 200 -85 c 3
 200 -127 111 -189 75 -195 c 1
 70 -180 l 1
 101 -171 150 -132.013671875 150 -95 c 3
EndSplineSet
EndChar
StartChar: uni00B9
Encoding: 185 185 181
Width: 167
VWidth: 0
Flags: W
HStem: 428 26<16.2132 67.6659 111.578 155.506> 624 20<25 49>
VStem: 70 39<459.592 621.757>
LayerCount: 2
Fore
SplineSet
25 624 m 1
 25 644 l 1
 41 644 78 653 115 685 c 1
 112 668 109 645 109 606 c 2
 109 474 l 18
 109 456 148 459 153 454 c 0
 156 451 157 437 157 428 c 1
 148 430 122 430 85 430 c 3
 48 430 25 430 15 428 c 1
 15 437 15 450 19 452 c 0
 27 456 70 453 70 474 c 10
 70 573 l 18
 70 599 67 620 49 622 c 10
 25 624 l 1
EndSplineSet
EndChar
StartChar: ordmasculine
Encoding: 186 186 179
Width: 275
VWidth: 0
Flags: W
HStem: 420 29<109.33 174.834> 631 29<102.15 176.217>
VStem: 20 57<475.225 606.879> 198 57<469.436 617.3>
LayerCount: 2
Fore
SplineSet
138 631 m 3
 98 631 77 593.012498047 77 553 c 3
 77 497.990909842 103 449 142 449 c 3
 173 449 198 475 198 543 c 3
 198 605.032226562 178 631 138 631 c 3
20 542 m 3
 20 599 71.4931640625 660 145 660 c 3
 215.0285656 660 255 607.08483776 255 554 c 3
 255 470.513671875 212 420 134 420 c 3
 44 420 20 494.93359375 20 542 c 3
EndSplineSet
Validated: 1
EndChar
StartChar: AE
Encoding: 198 198 177
Width: 943
VWidth: 0
Flags: W
HStem: -4 25<147.332 217.542 373.1 426.045> 0 42<523.282 817.654> 239 45<265 430> 318 43<523 724.718> 408 20G<762 775.368> 608 42<523.42 804.887>
VStem: 430 93<43.9409 239 284 318 361 585.587> 737 16<244 276.421> 762 16<411.902 422>
DStem2: 74 44 134 44 0.480486 0.877003<26.5818 250.776 302.253 645.713>
LayerCount: 2
Fore
SplineSet
430 284 m 1x3f80
 430 586 l 1
 265 284 l 1
 430 284 l 1x3f80
430 239 m 1
 240 239 l 5
 134 44 l 3
 134 26 210 26 215 21 c 0
 217 19 218 20 218 -4 c 1xbf80
 197 0 140 0 103 0 c 3x7f80
 66 0 32 0 5 -4 c 1xbf80
 5 8 7 11 11 15 c 0
 23 27 66 24 74 44 c 2
 383 608 l 2
 396 633 404 650 452 650 c 2
 870 650 l 1
 845 527 l 1
 830 533 l 1
 830 533 825 608 749 608 c 2
 554 608 l 2
 547 608 523 602 523 583 c 2
 523 361 l 1
 703 361 l 2
 747 361 734 391 762 422 c 1
 778 428 l 1
 753 238 l 1
 737 244 l 1
 724 268 735 318 701 318 c 2
 523 318 l 1
 523 66 l 2
 523 48 548 42 555 42 c 2
 761 42 l 2
 845 42 879 151 879 151 c 1
 893 145 l 1
 871 0 l 1
 477 0 l 2x7f80
 439 0 397 0 370 -4 c 1xbf80
 370 8 372 14 376 18 c 0
 388 30 430 21 430 42 c 2x7f80
 430 239 l 1
EndSplineSet
EndChar
StartChar: Ccedilla
Encoding: 199 199 151
Width: 648
VWidth: 0
Flags: W
HStem: -195 15<316.667 330.405> -9 36<295.694 337 389 509.516> 624 36<273.824 464.915>
VStem: 40 106<197.943 446.151> 394 50<-127.78 -65.5289> 556 13<471 498.125>
LayerCount: 2
Fore
SplineSet
394 -95 m 3
 394 -70 343 -46 325 -46 c 1
 337 -9 l 1
 153 6 40 132 40 313 c 3
 40 523 181 660 362 660 c 3
 462 660 527 638 594 613 c 5
 569 465 l 5
 556 471 l 1
 532 564 l 1
 478 615 413 624 350 624 c 3
 225 624 146 501 146 337 c 3
 146 176 219 27 386 27 c 3
 472 27 542 48 596 85 c 1
 608 49 l 1
 552 6 470 -8 389 -10 c 1
 384 -30 l 1
 403 -30 444 -59 444 -85 c 3
 444 -127 355 -189 319 -195 c 1
 314 -180 l 1
 345 -171 394 -132 394 -95 c 3
EndSplineSet
EndChar
StartChar: Eth
Encoding: 208 208 167
Width: 682
VWidth: 0
Flags: W
HStem: 0 47<198.16 435.113> 293 54<49.7244 105 198 270.46> 603 47<198.271 411.11>
VStem: 105 93<48.9721 293 349 601.028> 547 100<187.829 448.394>
LayerCount: 2
Fore
SplineSet
152 0 m 6
 114 0 72 0 45 -4 c 5
 45 8 47 14 51 18 c 4
 63 30 105 36 105 57 c 6
 105 293 l 5
 84 292 63 291 40 290 c 5
 46 306 47 326 50 345 c 5
 69 346 87 346 105 347 c 5
 105 593 l 6
 105 614 63 620 51 632 c 4
 47 636 45 642 45 654 c 5
 72 650 115 650 152 650 c 6
 320 650 l 6
 556 650 647 494 647 325 c 7
 647 85 493 0 332 0 c 6
 152 0 l 6
343 47 m 6
 461 47 547 124 547 301 c 7
 547 436 504 603 308 603 c 6
 229 603 l 6
 222 603 198 597 198 578 c 6
 198 349 l 5
 224 349 251 350 280 350 c 5
 277 331 275 309 270 295 c 5
 245 295 221 295 198 295 c 5
 198 71 l 6
 198 53 223 47 230 47 c 6
 343 47 l 6
EndSplineSet
Validated: 1
EndChar
StartChar: multiply
Encoding: 215 215 166
Width: 411
VWidth: 0
Flags: W
HStem: 52 316
VStem: 50 311
DStem2: 166 212 208 170 0.70059 0.713564<-166.183 -0.544903 58.2793 218.922> 208 252 166 212 0.70059 -0.713564<-164.211 -0.575514 58.5122 220.302>
LayerCount: 2
Fore
SplineSet
91 52 m 1
 77 66 69 76 50 93 c 1
 89 131 128 174 166 212 c 1
 128 251 88 289 50 327 c 1
 65 340 76 352 91 368 c 1
 130 330 170 290 208 252 c 1
 245 290 284 329 320 368 c 1
 335 353 347 343 361 326 c 1
 325 288 288 250 250 212 c 1
 287 174 324 132 361 94 c 1
 347 79 335 67 320 52 c 1
 283 90 245 132 208 170 c 1
 170 132 130 90 91 52 c 1
EndSplineSet
EndChar
StartChar: Oslash
Encoding: 216 216 172
Width: 719
VWidth: 0
Flags: W
HStem: -10 37<297.311 460.303> 624 36<262.63 423.947> 678 20G<540.378 592.667>
VStem: 35 93<219.105 446.151> 591 93<188.871 424.512>
DStem2: 112 -48 173 -78 0.508029 0.86134<5.14957 112.743 187.8 698.196 778.085 866.092>
LayerCount: 2
Fore
SplineSet
173 -78 m 1
 112 -48 l 1
 168 48 l 1
 84 104 35 195 35 313 c 3
 35 523 170 660 351 660 c 3
 411 660 465 645 509 624 c 1
 552 698 l 1
 613 668 l 5
 565 586 l 5
 643 522 684 425 684 325 c 3
 684 85 530 -10 369 -10 c 3
 317 -10 269 0 228 15 c 1
 173 -78 l 1
339 624 m 3
 214 624 128 501 128 337 c 3
 128 251 161 171 207 114 c 1
 479 574 l 1
 444 601 398 624 339 624 c 3
525 519 m 5
 257 66 l 1
 290 46 333 27 380 27 c 3
 498 27 591 124 591 301 c 3
 591 372 566 455 525 519 c 5
EndSplineSet
EndChar
StartChar: Thorn
Encoding: 222 222 175
Width: 557
VWidth: 0
Flags: W
HStem: -4 25<201.158 271.438> 138 43<188 342.443> 478 42<188.42 350.574> 629 21<204.074 259.57>
VStem: 105 83<30.8841 138 181 476.42 520 620.045> 432 85<253.232 401.916>
LayerCount: 2
Fore
SplineSet
188 520 m 25
 305 520 l 2
 453 520 517 412 517 349 c 3
 517 224 466 138 267 138 c 2
 188 138 l 1
 188 44 l 2
 188 26 263 26 268 21 c 0
 271 18 272 19 272 -4 c 1
 250 -1 178 0 141 0 c 0
 104 0 72 -1 45 -4 c 1
 45 8 47 11 51 15 c 0
 63 27 105 23 105 44 c 2
 105 606 l 6
 105 627 53 623 41 635 c 4
 37 639 35 638 35 650 c 1
 260 650 l 1
 260 626 258 631 256 629 c 4
 251 624 188 624 188 606 c 6
 188 520 l 25
258 478 m 2
 219 478 l 2
 212 478 188 472 188 453 c 2
 188 181 l 1
 244 181 l 2
 344 181 432 230 432 325 c 3
 432 389 386 478 258 478 c 2
EndSplineSet
EndChar
StartChar: germandbls
Encoding: 223 223 176
Width: 521
VWidth: 0
Flags: MW
HStem: -10 31<252.987 340.654> 671 34<212.034 299.334>
VStem: 91 75<29.8653 585.893> 227 50<21.7955 50.6731> 412 79<98.1843 262.099>
LayerCount: 2
Fore
SplineSet
166 0 m 17
 166 0 56 -1 26 -4 c 1
 26 9 28 13 32 17 c 0
 45 30 91 25 91 49 c 2
 91 455 l 2
 91 639 185 705 258 705 c 3
 361 705 421 627 421 535 c 3
 421 447 402 409 325 369 c 1
 428 369 491 264 491 194 c 3
 491 66 402 -10 282 -10 c 3
 225 -10 227 17 227 34 c 3
 227 55 259 73 277 73 c 1
 277 54 281 21 290 21 c 3
 358 21 412 100 412 179 c 3
 412 292 318 337 252 337 c 3
 238 337 217 333 217 333 c 1
 217 358 l 1
 245 373 l 2
 319 413 342 474 342 526 c 3
 342 570 330 671 254 671 c 3
 197 671 166 607 166 455 c 2
 166 0 l 17
EndSplineSet
EndChar
StartChar: ae
Encoding: 230 230 178
Width: 660
VWidth: 0
Flags: MW
HStem: -10 51<133.047 254.702> 227 38<375 508.077> 386 44<162.892 267.873>
VStem: 40 74<60.3155 154.736> 280 87<102.489 221> 568 61<265 341.229>
LayerCount: 2
Fore
SplineSet
114 110 m 3
 114 63 154 41 190 41 c 3
 229 41 259 63 280 84 c 1
 280 221 l 1
 231 187 114 187 114 110 c 3
474 430 m 3
 551 430 629 369 629 240 c 1
 367 227 l 1
 367 126 404 24 480 24 c 3
 531 24 579 53 610 93 c 1
 630 81 l 1
 597 20 546 -10 468 -10 c 3
 395 -10 353 14 321 55 c 1
 282 21 224 -10 176 -10 c 3
 102 -10 40 24 40 98 c 3
 40 203 196 211 280 260 c 1
 280 315 l 2
 280 362 260 386 230 386 c 3
 159 386 153 353 144 326 c 0
 135 301 130 284 105 284 c 3
 81 284 63 293 63 317 c 3
 63 342 73 352 89 365 c 0
 106 379 156 430 242 430 c 3
 301 430 324 418 341 383 c 1
 380 417 429 430 474 430 c 3
568 265 m 1
 568 331 537 396 476 396 c 3
 437 396 387 364 375 265 c 1
 568 265 l 1
EndSplineSet
EndChar
StartChar: ccedilla
Encoding: 231 231 150
Width: 443
VWidth: 0
Flags: W
HStem: -195 15<192.667 206.405> -8 32<265 329.585> 396 34<195.835 298.49>
VStem: 35 87<125.577 307.64> 270 50<-127.78 -65.5289>
LayerCount: 2
Fore
SplineSet
270 -95 m 3
 270 -70 219 -46 201 -46 c 1
 213 -8 l 1
 102 6 35 78 35 212 c 3
 35 368 169 430 262 430 c 3
 343 430 400 387 400 364 c 3
 400 342 389 324 362 324 c 3
 330 324 317 396 249 396 c 3
 205 396 122 357 122 228 c 3
 122 127 183 24 269 24 c 3
 320 24 361 55 392 95 c 1
 418 81 l 1
 388 25 332 -4 265 -9 c 5
 260 -30 l 5
 279 -30 320 -59 320 -85 c 7
 320 -127 231 -189 195 -195 c 1
 190 -180 l 1
 221 -171 270 -132 270 -95 c 3
EndSplineSet
EndChar
StartChar: eth
Encoding: 240 240 200
Width: 466
VWidth: 0
Flags: W
HStem: -10 39<172.495 277.653> 391 39<178.004 299.48> 685 20G<98 151>
VStem: 25 89<104.861 307.809> 342 89<118.72 348.854>
LayerCount: 2
Fore
SplineSet
321 393 m 1
 301 466 271 522 232 572 c 1
 197 556 162 540 122 520 c 1
 118 536 111 544 105 555 c 1
 139 567 173 584 207 601 c 1
 174 637 134 670 98 695 c 1
 136 705 l 1
 166 688 207 657 245 620 c 1
 282 637 313 657 345 675 c 1
 355 666 360 654 362 640 c 1
 337 627 308 612 273 592 c 1
 356 504 431 380 431 236 c 0
 431 67 323 -10 242 -10 c 0
 113 -10 25 69 25 208 c 0
 25 331 116 430 215 430 c 0
 273 430 304 412 321 393 c 1
332 347 m 1
 314 367 277 391 229 391 c 0
 156 391 114 291 114 192 c 0
 114 63 185 29 229 29 c 0
 297 29 342 126 342 231 c 0
 342 273 339 311 332 347 c 1
EndSplineSet
Validated: 1
EndChar
StartChar: oslash
Encoding: 248 248 173
Width: 495
VWidth: 0
Flags: W
HStem: -10 34<207.421 308.577> 396 34<185.584 288.973> 468 20G<370 409.333>
VStem: 30 87<139.781 303.983> 378 87<105.84 280.596>
DStem2: 62 -48 103 -78 0.51261 0.858622<0 98.7094 180.246 456.761 533.377 619.515>
LayerCount: 2
Fore
SplineSet
103 -78 m 1
 62 -48 l 1
 111 34 l 1
 60 72 30 132 30 202 c 3
 30 358 157 430 250 430 c 3
 281 430 312 423 337 413 c 1
 382 488 l 1
 423 458 l 5
 381 386 l 5
 434 346 465 285 465 214 c 3
 465 67 373 -10 244 -10 c 3
 211 -10 180 -2 154 8 c 1
 103 -78 l 1
238 396 m 3
 194 396 117 357 117 228 c 3
 117 184 137 142 154 107 c 1
 309 365 l 1
 291 380 266 396 238 396 c 3
340 318 m 5
 184 59 l 1
 203 41 229 24 257 24 c 3
 308 24 378 70 378 188 c 3
 378 235 358 281 340 318 c 5
EndSplineSet
EndChar
StartChar: thorn
Encoding: 254 254 174
Width: 509
VWidth: 0
Flags: W
HStem: -274 27<171.738 225.438> -10 34<207.063 326.383> 396 34<213.699 312.817> 622 25<27 70.8812> 686 20G<149.5 165>
VStem: 85 76<-237.586 46 56.436 357.67 364 615.543> 387 87<101.516 310.733>
LayerCount: 2
Fore
SplineSet
85 573 m 2
 85 613 62 622 27 622 c 9
 27 647 l 17
 58 647 132 677 167 706 c 1
 163 689 161 672 161 636 c 1
 161 632 161 369 161 364 c 1
 190 403 227 430 270 430 c 3
 403 430 474 332 474 214 c 3
 474 67 393 -10 264 -10 c 3
 226 -10 189 12 161 46 c 1
 161 -221 l 2
 161 -241 216 -241 222 -247 c 0
 225 -250 226 -248 226 -274 c 1
 202 -271 160 -270 119 -270 c 3
 78 -270 50 -271 20 -274 c 1
 20 -261 22 -258 26 -254 c 0
 39 -241 85 -245 85 -221 c 2
 85 573 l 2
161 325 m 1
 161 87 l 1
 179 51 213 24 276 24 c 3
 327 24 387 70 387 188 c 3
 387 287 352 396 257 396 c 3
 215 396 182 365 161 325 c 1
EndSplineSet
EndChar
StartChar: dotlessi
Encoding: 305 305 1
Width: 258
VWidth: 0
Flags: W
HStem: -4 27<184.232 227.438> 364 23<42 85.8812>
VStem: 100 76<30.9572 357.776>
LayerCount: 2
Fore
SplineSet
100 314 m 18
 100 356 77 364 42 364 c 9
 42 387 l 17
 73 387 147 417 182 446 c 1
 178 427 176 409 176 365 c 10
 176 49 l 18
 176 29 218 29 224 23 c 1
 227 20 228 22 228 -4 c 1
 204 -1 180 0 147 0 c 27
 101 0 65 -1 35 -4 c 1
 35 9 38 13 42 17 c 1
 55 30 100 25 100 49 c 10
 100 314 l 18
EndSplineSet
EndChar
StartChar: OE
Encoding: 338 338 274
Width: 898
VWidth: 0
Flags: MW
HStem: 0 37<287.635 424.844 511.566 791.133> 318 43<508 709.718> 614 36<260.171 424.806 512.783 774.373>
VStem: 35 93<206.9 444.761> 425 83<43.9409 318 361 606.407> 722 13<244 265.688>
LayerCount: 2
Fore
SplineSet
428 647 m 1
 443 649 458 650 472 650 c 2
 855 650 l 1
 830 512 l 1
 815 518 l 1
 815 518 810 608 734 608 c 2
 539 608 l 2
 532 608 508 602 508 583 c 2
 508 361 l 1
 688 361 l 2
 732 361 719 391 747 422 c 1
 760 428 l 1
 735 238 l 1
 722 244 l 1
 709 268 720 318 686 318 c 2
 508 318 l 1
 508 66 l 2
 508 48 533 42 540 42 c 2
 746 42 l 2
 830 42 864 166 864 166 c 1
 878 160 l 1
 856 0 l 1
 472 0 l 2
 460 0 447 1 435 2 c 1
 413 0 391 0 369 0 c 3
 163 0 35 120 35 313 c 3
 35 523 170 650 351 650 c 3
 378 650 404 650 428 647 c 1
339 614 m 3
 214 614 128 501 128 337 c 3
 128 176 213 37 380 37 c 3
 398.723632812 37 425 39 425 52 c 2
 425 598 l 2
 425 613 361.322265625 614 339 614 c 3
EndSplineSet
EndChar
StartChar: oe
Encoding: 339 339 273
Width: 770
VWidth: 0
Flags: MW
HStem: -10 34<201.915 308.071 531.71 646.88> 227 38<460 603.462> 396 34<185.584 295.154 514.277 606.847>
VStem: 30 87<119.081 303.983> 368 89<114.322 225.361> 653 76<265 341.229>
LayerCount: 2
Fore
SplineSet
30 202 m 3
 30 358 157 430 250 430 c 3
 323 430 376 400 413 354 c 1
 457 409 518 430 574 430 c 3
 651 430 729 369 729 240 c 5
 457 227 l 5
 457 126 504 24 580 24 c 3
 631 24 679 53 710 93 c 1
 730 81 l 1
 697 20 646 -10 568 -10 c 3
 494 -10 443 15 408 58 c 1
 369 13 315 -10 244 -10 c 3
 109 -10 30 84 30 202 c 3
238 396 m 3
 194 396 117 357 117 228 c 3
 117 127 171 24 257 24 c 3
 308 24 368 70 368 188 c 3
 368 287 333 396 238 396 c 3
653 265 m 1
 653 331 622 396 561 396 c 3
 522 396 472 364 460 265 c 1
 653 265 l 1
EndSplineSet
EndChar
StartChar: florin
Encoding: 402 402 275
Width: 375
VWidth: 0
Flags: W
HStem: -268 59<-51.5 57.4294> 370 50<72.8579 111 201 316.62> 646 59<288.169 370.677>
VStem: 116 85<420 514.585>
DStem2: 91 -18 176 -18 0.051478 0.998674<-125.716 388.515>
LayerCount: 2
Fore
SplineSet
91 -18 m 2
 111 370 l 1
 79 370 68 367 50 364 c 1
 50 386 61 411 85 420 c 1
 116 420 l 1
 121 455 l 2
 143.714285714 614 290 705 363 705 c 3
 420 705 475 650 475 633 c 0
 475 612 421 587 403 587 c 1
 367 631 360 646 299 646 c 3
 259 646 226.142857143 596 206 455 c 2
 201 420 l 1
 347 420 l 1
 316 364 l 1
 310 365 292 370 257 370 c 2
 196 370 l 1
 176 -18 l 2
 166 -178 95 -268 -23 -268 c 3
 -80 -268 -115 -213 -115 -196 c 0
 -115 -175 -61 -150 -43 -150 c 1
 -7 -194 7.1054273576e-15 -209 31 -209 c 7
 58 -209 82 -160 91 -18 c 2
EndSplineSet
Validated: 1
EndChar
StartChar: uni0237
Encoding: 567 567 3
Width: 276
VWidth: 0
Flags: W
HStem: 358 38<52 108.554>
VStem: 110 86<-64.152 351>
LayerCount: 2
Fore
SplineSet
196 46 m 18
 196 -116 45 -266 45 -266 c 17
 40 -272 29 -271 19 -260 c 9
 -16 -221 l 21
 -23 -212 -22 -203 -10 -195 c 5
 42 -160 114 -109 114 -61 c 3
 114 -35 110 94 110 189 c 10
 110 351 l 25
 52 358 l 25
 52 396 l 17
 108 396 162 410 202 455 c 1
 198 436 196 416 196 370 c 9
 196 46 l 18
EndSplineSet
Validated: 1
EndChar
StartChar: endash
Encoding: 8211 8211 213
Width: 510
VWidth: 0
Flags: W
HStem: 200 55<79.7244 410.46>
LayerCount: 2
Fore
SplineSet
410 205 m 1
 327 205 153 205 70 200 c 1
 76 216 77 236 80 255 c 1
 161 259 336 259 420 260 c 1
 417 241 415 219 410 205 c 1
EndSplineSet
Validated: 1
EndChar
StartChar: emdash
Encoding: 8212 8212 214
Width: 700
VWidth: 0
Flags: W
HStem: 200 55<79.7244 600.46>
LayerCount: 2
Fore
SplineSet
600 205 m 1
 517 205 153 205 70 200 c 1
 76 216 77 236 80 255 c 1
 161 259 526 259 610 260 c 1
 607 241 605 219 600 205 c 1
EndSplineSet
Validated: 1
EndChar
StartChar: quotereversed
Encoding: 8219 8219 281
Width: 260
VWidth: 0
Flags: W
HStem: 419 212
VStem: 50 69<515.973 605.928>
LayerCount: 2
Fore
SplineSet
140 586 m 3
 140 570 119 558 119 538 c 3
 119 525 179 432 180 419 c 9
 153 423 l 17
 125 447 50 521 50 579 c 3
 50 612 72 631 83 631 c 3
 96 631 140 614 140 586 c 3
EndSplineSet
EndChar
StartChar: dagger
Encoding: 8224 8224 308
Width: 360
VWidth: 0
Flags: MW
HStem: 455 65<19.7244 141 224 340.46>
VStem: 145 76<293.7 454>
LayerCount: 2
Fore
SplineSet
135 654 m 1
 135 654 165 660 190 660 c 3
 215 660 225 632 225 607 c 3
 225 580 225 551 224 519 c 1
 273 519 318 520 350 520 c 1
 347 501 345 469 340 455 c 1
 310 455 267 455 221 455 c 1
 215 305 204 119 196 2 c 1
 179 -3 189 -10 176 -10 c 3
 171 -10 168 -8 165 -4 c 2
 145 454 l 1
 93 453 44 452 10 450 c 1
 16 466 17 496 20 515 c 1
 50 516 94 517 141 518 c 1
 135 654 l 1
EndSplineSet
EndChar
StartChar: daggerdbl
Encoding: 8225 8225 309
Width: 370
VWidth: 0
Flags: MW
HStem: 125 55<44.7244 157 217 330.46> 445 75<19.7244 141 234 350.46>
VStem: 145 86<288.833 444>
LayerCount: 2
Fore
SplineSet
135 654 m 1
 135 654 175 660 200 660 c 7
 225 660 235 632 235 607 c 7
 235 580 235 551 234 519 c 1
 283 519 328 520 360 520 c 1
 357 501 355 459 350 445 c 1
 320 445 277 445 231 445 c 1
 228 359 222 266 217 179 c 1
 261 179 305 180 340 180 c 1
 337 161 335 139 330 125 c 1
 297 125 256 125 214 125 c 1
 211 80 208 38 206 2 c 1
 189 -3 189 -10 176 -10 c 7
 171 -10 168 -8 165 -4 c 2
 159 124 l 1
 114 123 71 122 35 120 c 1
 41 136 42 156 45 175 c 1
 77 176 116 177 157 178 c 1
 145 444 l 1
 93 443 44 442 10 440 c 1
 16 456 17 496 20 515 c 1
 50 516 94 517 141 518 c 1
 135 654 l 1
EndSplineSet
EndChar
StartChar: uni2023
Encoding: 8227 8227 269
Width: 250
VWidth: 0
Flags: W
HStem: 167 82<80.4935 141.531>
VStem: 80 80<186.55 229.45>
LayerCount: 2
Fore
SplineSet
95 249 m 3
 112 249 160 220 160 208 c 3
 160 196 110 167 95 167 c 3
 84 167 80 167 80 208 c 3
 80 249 83 249 95 249 c 3
EndSplineSet
EndChar
StartChar: perthousand
Encoding: 8240 8240 205
Width: 1025
VWidth: 0
Flags: W
HStem: -10 39<472.583 567.677 802.583 897.677> 236 39<471.914 566.472 801.914 896.472> 325 39<132.583 227.677> 571 39<131.914 226.694>
VStem: 30 77<389.665 534.09> 248 77<387.904 542.912> 370 77<54.665 199.09> 588 77<52.9035 207.912> 700 77<54.665 199.09> 918 77<52.9035 207.912>
DStem2: 110 -5 175 0 0.551514 0.834165<29.5024 734.741>
LayerCount: 2
Fore
SplineSet
848 236 m 3
 791 236 777 181 777 133 c 3
 777 93 790 29 847 29 c 3
 911 29 918 78 918 133 c 3
 918 176 915 236 848 236 c 3
700 127 m 3
 700 206 776 275 850 275 c 3
 938 275 995 204 995 139 c 3
 995 39 932 -10 844 -10 c 3
 736 -10 700 80 700 127 c 3
EndSplineSet
Refer: 93 37 N 1 0 0 1 0 0 2
EndChar
StartChar: uni2031
Encoding: 8241 8241 206
Width: 1375
VWidth: 0
Flags: W
HStem: -10 39<472.583 567.677 812.583 907.677 1152.58 1247.68> 236 39<471.914 566.472 811.914 906.472 1151.91 1246.47> 325 39<132.583 227.677> 571 39<131.914 226.694>
VStem: 30 77<389.665 534.09> 248 77<387.904 542.912> 370 77<54.665 199.09> 588 77<52.9035 207.912> 710 77<54.665 199.09> 928 77<52.9035 207.912> 1050 77<54.665 199.09> 1268 77<52.9035 207.912>
DStem2: 110 -5 175 0 0.551514 0.834165<29.5024 734.741>
LayerCount: 2
Fore
SplineSet
1198 236 m 3
 1141 236 1127 181 1127 133 c 3
 1127 93 1140 29 1197 29 c 3
 1261 29 1268 78 1268 133 c 3
 1268 176 1265 236 1198 236 c 3
1050 127 m 3
 1050 206 1126 275 1200 275 c 3
 1288 275 1345 204 1345 139 c 3
 1345 39 1282 -10 1194 -10 c 3
 1086 -10 1050 80 1050 127 c 3
858 236 m 3
 801 236 787 181 787 133 c 3
 787 93 800 29 857 29 c 3
 921 29 928 78 928 133 c 3
 928 176 925 236 858 236 c 3
710 127 m 3
 710 206 786 275 860 275 c 3
 948 275 1005 204 1005 139 c 3
 1005 39 942 -10 854 -10 c 3
 746 -10 710 80 710 127 c 3
EndSplineSet
Refer: 93 37 N 1 0 0 1 0 0 2
EndChar
StartChar: uni2035
Encoding: 8245 8245 286
Width: 225
VWidth: 0
Flags: W
HStem: 399 240
VStem: 60 85<487.123 620.654> 98 46<413 512.76>
LayerCount: 2
Fore
SplineSet
145 606 m 3xc0
 145 597 140 562 140 528 c 3
 140 515 143 412 144 399 c 9
 98 413 l 17xa0
 84 458 60 608 60 629 c 3
 60 635 62 639 73 639 c 3
 86 639 145 614 145 606 c 3xc0
EndSplineSet
Validated: 1
EndChar
StartChar: guilsinglright
Encoding: 8250 8250 276
Width: 390
VWidth: 0
Flags: W
VStem: 230 110<184.341 238.632>
LayerCount: 2
Fore
SplineSet
60 56 m 5
 60 56 230 185 230 210 c 7
 230 241 70 374 70 374 c 5
 90 410 l 5
 90 410 340 244 340 210 c 7
 340 181 80 20 80 20 c 5
 60 56 l 5
EndSplineSet
EndChar
StartChar: fraction
Encoding: 8260 8260 191
Width: 70
VWidth: 0
Flags: W
DStem2: -160 60 -123 33 0.564056 0.825737<0 633.635>
LayerCount: 2
Fore
SplineSet
-123 33 m 13
 -160 60 l 17
 -21.841796875 249.3359375 55 387 190 590 c 9
 227 563 l 21
 96 367 14.912109375 222.583007812 -123 33 c 13
EndSplineSet
Validated: 1
EndChar
StartChar: uni204B
Encoding: 8267 8267 285
Width: 507
VWidth: 0
Flags: W
HStem: -4 25<254.416 316.438> 634 16G<40 53.5 191 361>
VStem: 100 52<26.4214 623.579> 191 291<376.472 557.34> 191 52<30.1309 278>
LayerCount: 2
Fore
SplineSet
152 0 m 1xe0
 115 0 67 -1 40 -4 c 1
 40 8 42 11 46 15 c 0
 58 27 100 23 100 44 c 2
 100 606 l 2
 100 627 58 623 46 635 c 0
 42 639 40 642 40 654 c 1
 67 650 115 650 152 650 c 9
 152 0 l 1xe0
191 650 m 9xe8
 300 650 l 2
 422 650 482 547 482 484 c 3xf0
 482 359 419 278 262 278 c 2
 243 278 l 1
 243 44 l 2
 243 26 308 26 313 21 c 0
 316 18 317 19 317 -4 c 1
 295 -1 228 0 191 0 c 1
 191 650 l 9xe8
EndSplineSet
EndChar
StartChar: uni2070
Encoding: 8304 8304 267
Width: 214
VWidth: 0
Flags: W
HStem: 425 27<81.3083 132.953> 653 27<80.6684 134.112>
VStem: 15 45<465.574 632.879> 154 45<463.228 639.648>
LayerCount: 2
Fore
SplineSet
107 653 m 3
 69 653 60 598 60 548 c 3
 60 511 70.875 452 107 452 c 7
 145.012695312 452 154 506 154 548 c 3
 154 600.009765625 146.05078125 653 107 653 c 3
15 548 m 3
 15 617 53.9905668772 680 107 680 c 3
 170.007936008 680 199 620.443081105 199 548 c 3
 199 480 172.0078125 425 107 425 c 3
 41 425 15 481 15 548 c 3
EndSplineSet
EndChar
StartChar: uni2074
Encoding: 8308 8308 195
Width: 209
VWidth: 0
Flags: W
HStem: 425 21G<119 163> 490 30<58 121 161 191.668>
VStem: 121 40<425.348 490 520 608>
LayerCount: 2
Fore
SplineSet
121 608 m 1
 94 575 80 553 58 520 c 1
 121 520 l 1
 121 608 l 1
199 527 m 1
 192 495 l 1
 185 492 172 490 159 490 c 1
 159 466 161 432 163 425 c 1
 119 425 l 1
 121 431 123 471 123 490 c 1
 10 490 l 1
 50 553 76 600 120 659 c 1
 163 680 l 1
 162 671 161 667 161 654 c 2
 161 520 l 1
 182 520 186 521 199 527 c 1
EndSplineSet
EndChar
StartChar: uni2075
Encoding: 8309 8309 262
Width: 162
VWidth: 0
Flags: W
HStem: 420 21<15 68.1339> 630 40<51.8125 147>
VStem: 101 50<459.726 542.51>
DStem2: 19 567 47 589 0.208881 0.977941<27.3634 71.7352>
LayerCount: 2
Fore
SplineSet
15 441 m 7
 76 441 101 467.986328125 101 505 c 3
 101 543 52 561 19 567 c 9
 41 670 l 17
 134 670 l 2
 152 670 153 672 157 674 c 9
 147 630 l 25
 69 630 l 18
 61 630 56 629 54 620 c 2
 47 589 l 1
 73 586 151 569.008771255 151 512 c 3
 151 447.96875 81 420 10 420 c 0
 15 441 l 7
EndSplineSet
EndChar
StartChar: uni2076
Encoding: 8310 8310 263
Width: 203
VWidth: 0
Flags: W
HStem: 425 22<79.2903 126.245> 548 22<99 122.603>
VStem: 15 45<455.89 583.181> 143 45<453.996 538.682>
LayerCount: 2
Fore
SplineSet
99 570 m 3
 146 570 188 548 188 503 c 3
 188 452 143 425 96 425 c 3
 66 425 15 451 15 513 c 3
 15 588 93 654 130 676 c 9
 154 657 l 21
 109 627 60 578 60 511 c 3
 60 484 76 447 101 447 c 3
 117 447 143 462 143 497 c 3
 143 533 115 548 89 548 c 0
 99 570 l 3
EndSplineSet
EndChar
StartChar: uni2077
Encoding: 8311 8311 264
Width: 173
VWidth: 0
Flags: W
HStem: 420 21G<41 89.5> 630 40<35.3822 126>
VStem: 41 45<420 461.135>
LayerCount: 2
Fore
SplineSet
41 420 m 17
 71 471 98 558 126 630 c 1
 65 630 l 2
 49 630 37 619 31 600 c 1
 29 600 18 600 15 601 c 1
 24 664 l 1
 30 667 36 670 51 670 c 2
 173 670 l 1
 129 576 93 458 86 420 c 9
 41 420 l 17
EndSplineSet
EndChar
StartChar: uni2078
Encoding: 8312 8312 265
Width: 193
VWidth: 0
Flags: MW
HStem: 424 25<69.5223 119.878> 655 25<74.5098 122.045>
VStem: 15 40<456.421 535.214> 133 50<454.262 532.216>
LayerCount: 2
Fore
SplineSet
84 548 m 1
 68 536 55 515 55 492 c 3
 55 469 77 449 94 449 c 3
 111 449 133 465.978515625 133 489 c 3
 133 517 110 539 84 548 c 1
67 564 m 1
 50 575 28 599 28 622 c 3
 28 653 64 680 103 680 c 3
 138 680 163 650 163 629 c 3
 163 610 146 582 124 568 c 1
 150 561 183 532 183 495 c 3
 183 457 139.01171875 424 98 424 c 3
 54 424 15 455 15 487 c 3
 15 517 43 550 67 564 c 1
109 578 m 1
 121 592 133 606 133 620 c 3
 133 640 110 655 97 655 c 3
 83 655 67 641 67 623 c 3
 67 607 86 584 109 578 c 1
EndSplineSet
EndChar
StartChar: uni2079
Encoding: 8313 8313 266
Width: 191
VWidth: 0
Flags: W
HStem: 425 21G<51.5 69> 539 22<78.3908 95> 653 27<66.0266 120.813>
VStem: 10 45<573.342 647.343> 136 45<533.085 645.222>
LayerCount: 2
Fore
SplineSet
95 539 m 3
 61 539 10 568 10 606 c 3
 10 659 67 680 99 680 c 3
 127 680 181 654 181 596 c 3
 181 536 99 453 69 430 c 9
 34 425 l 17
 69 459 136 535 136 598 c 3
 136 634 113 653 94 653 c 3
 79 653 55 639 55 611 c 3
 55 583 87 561 106 561 c 4
 95 539 l 3
EndSplineSet
EndChar
StartChar: uni207A
Encoding: 8314 8314 298
Width: 240
VWidth: 0
Flags: W
HStem: 533 35<29.7244 101 137 210.287> 635 20G<131.5 139.5>
VStem: 102 35<440 533 568 650.449>
LayerCount: 2
Fore
SplineSet
136 533 m 1
 135 491 135 485 135 440 c 1
 120 440 120 440 100 435 c 1
 100 482 100 490 101 533 c 1
 59 532 66 531 20 530 c 1
 26 546 27 547 30 565 c 1
 72 567 62 567 102 568 c 1
 103 607 104 607 105 650 c 1
 126 655 123 653 140 655 c 1
 139 611 138 609 137 568 c 1
 177 568 178 569 220 570 c 1
 218 552 213 553 210 535 c 1
 171 534 173 533 136 533 c 1
EndSplineSet
EndChar
StartChar: uni207B
Encoding: 8315 8315 299
Width: 210
VWidth: 0
Flags: W
HStem: 535 40<29.73 180.619>
VStem: 20 170
LayerCount: 2
Fore
SplineSet
180 540 m 5
 96.666015625 539.657226562 103.333007812 540.103515625 20 535 c 5
 26.197265625 551.234375 27.0576171875 556.379882812 30 575 c 1
 111.338867188 578.700195312 106.188476562 578.8203125 190 580 c 1
 186.775390625 561.26953125 184.504882812 554.0390625 180 540 c 5
EndSplineSet
EndChar
StartChar: uni207C
Encoding: 8316 8316 300
Width: 250
VWidth: 0
Flags: W
HStem: 496 35<29.6913 200.211> 574 35<39.8139 210.491>
VStem: 20 200
LayerCount: 2
Fore
SplineSet
200 501 m 1
 103.349609375 499.307617188 114.369140625 501.311523438 20 496 c 1
 26.2939453125 514.333007812 26.6142578125 512.666992188 30 531 c 1
 124.284179688 534.391601562 113.413085938 534.275390625 210 536 c 1
 205.872070312 517.666992188 202.202148438 519.333007812 200 501 c 1
210 579 m 5
 113.331054688 577.334960938 124.387695312 576.923828125 30 574 c 5
 35.787109375 590.647460938 38.0244140625 589.733398438 40 609 c 1
 136.666992188 613.385742188 123.333007812 612.143554688 220 614 c 1
 216.721679688 595.666992188 215.362304688 597.333007812 210 579 c 5
EndSplineSet
EndChar
StartChar: uni207D
Encoding: 8317 8317 301
Width: 119
VWidth: 0
Flags: W
HStem: 391 313
VStem: 15 36<475.001 624.988>
LayerCount: 2
Fore
SplineSet
97 704 m 13
 114 683 l 21
 79 655 51 606 51 551 c 7
 51 497 76 444 114 412 c 13
 94 391 l 21
 71 406 15 478 15 548 c 7
 15 614 53 669 97 704 c 13
EndSplineSet
EndChar
StartChar: uni207E
Encoding: 8318 8318 302
Width: 119
VWidth: 0
Flags: W
HStem: 391 313
VStem: 68 36<475.001 624.988>
LayerCount: 2
Fore
SplineSet
22 704 m 21
 66 669 104 614 104 548 c 7
 104 478 48 406 25 391 c 13
 5 412 l 21
 43 444 68 497 68 551 c 7
 68 606 40 655 5 683 c 13
 22 704 l 21
EndSplineSet
EndChar
StartChar: Euro
Encoding: 8364 8364 219
Width: 708
VWidth: 0
Flags: MW
HStem: -10 37<358.781 572.795> 215 50<39.7244 103 220 570.684> 329 49<39.7244 100 208 600.684> 624 36<335.566 524.915>
VStem: 103 107<268 327 378 453.432> 616 13<471 498.125>
LayerCount: 2
Fore
SplineSet
592 564 m 1
 538 615 473 624 410 624 c 3
 296 624 219 520 208 378 c 1
 357 379 556 379 610 380 c 1
 607 361 605 344 600 330 c 1
 547 330 354 329 206 329 c 1
 206 310 208 286 210 268 c 1
 348 269 527 269 580 270 c 1
 577 251 575 234 570 220 c 1
 520 220 354 219 220 219 c 1
 247 114 324 27 446 27 c 7
 532 27 602 48 656 85 c 1
 668 49 l 1
 606 2 525 -10 434 -10 c 3
 266 -10 150 81 113 217 c 1
 76 216 47 216 30 215 c 1
 36 231 37 246 40 265 c 1
 54 266 76 267 103 267 c 1
 101 282 100 311 100 327 c 1
 69 326 45 326 30 325 c 1
 36 341 37 356 40 375 c 1
 54 376 76 377 105 377 c 1
 131 551 260 660 422 660 c 3
 522 660 587 638 654 613 c 1
 629 465 l 1
 616 471 l 1
 592 564 l 1
EndSplineSet
EndChar
StartChar: notequal
Encoding: 8800 8800 218
Width: 430
VWidth: 0
Flags: W
HStem: 149 50<74.7244 160 234 345.193> 272 50<84.8124 196 266 355.46>
VStem: 65 300
DStem2: 128 38 182 18 0.259129 0.965843<-3.63297 115.501 182.968 243.628 311.025 419.176>
LayerCount: 2
Fore
SplineSet
182 18 m 1
 160 22 146 26 128 38 c 1
 141 83 152 122 160 149 c 1
 128 148 96 148 65 146 c 1
 71 164 72 178 75 196 c 1
 108 197 142 198 176 199 c 1
 184 225 190 248 196 272 c 1
 155 271 115 270 75 269 c 1
 81 286 83 300 85 319 c 1
 127 321 168 322 210 322 c 1
 217 352 226 391 238 448 c 1
 254 440 266 432 292 428 c 1
 281 383 273 350 266 323 c 1
 299 323 332 323 365 324 c 1
 362 306 360 292 355 274 c 1
 321 273 286 273 252 273 c 1
 245 247 241 222 234 199 c 1
 275 199 315 200 355 201 c 1
 351 183 347 169 345 151 c 1
 303 150 260 150 218 150 c 1
 209 120 198 75 182 18 c 1
EndSplineSet
EndChar
